<svg width="170" height="210" viewBox="0 0 170 210" fill="none" xmlns="http://www.w3.org/2000/svg">
<path fill-rule="evenodd" clip-rule="evenodd" d="M169.66 209.868L169.846 209.876L170 209.772C169.89 209.688 169.781 209.604 169.672 209.52C169.622 209.635 169.618 209.751 169.66 209.868Z" fill="#B68DF5"/>
<path fill-rule="evenodd" clip-rule="evenodd" d="M71.0262 94.93C71.0002 91.848 70.9192 89.069 71.2692 85.992C71.6262 82.855 71.9852 79.708 72.7302 76.646C72.9502 75.736 73.2102 74.824 73.6652 74.014C74.1682 73.118 74.8892 72.38 75.6012 71.655C77.7402 69.474 79.5442 70.058 82.4822 70.107C85.4102 70.155 88.3392 70.194 91.2672 70.241C97.1212 70.332 102.977 70.449 108.827 70.706C112.254 70.856 115.688 70.886 119.117 70.885C119.804 70.884 128.869 70.569 128.878 70.617C129.132 71.891 128.894 73.285 129.037 74.596C129.33 77.298 129.442 83.319 129.726 83.505C129.739 83.8 129.754 84.095 129.767 84.39C129.7 89.554 129.898 94.701 130.733 100.271C130.764 100.202 130.795 100.137 130.827 100.069C132.154 115.036 132.157 130.273 132.705 145.288C132.831 148.74 132.954 152.193 133.049 155.648C133.162 159.775 132.672 162.329 135.308 165.652C136.27 166.865 146.207 177.666 145.996 178.128C145.602 178.983 144.982 179.405 144.472 179.92C141.877 182.549 139.094 184.976 136.657 187.777C132.809 191.177 129.207 194.842 125.764 198.677C124.199 199.416 123.379 201.073 121.967 202C117.743 198.406 113.671 194.637 109.892 190.538C108.847 189.403 108.125 187.939 106.701 187.196C106.562 186.933 106.466 186.63 106.279 186.413C103 182.644 99.9922 178.649 97.1292 174.533C90.7082 165.302 85.3862 155.42 81.2022 144.909C77.5062 135.624 74.7222 126.043 73.0662 116.108C71.8952 109.09 71.0862 102.053 71.0262 94.93Z" fill="#7252BF"/>
<path fill-rule="evenodd" clip-rule="evenodd" d="M136.964 188C133.092 191.421 129.466 195.109 125.999 198.968C128.655 201.205 130.757 204.057 133.519 206.15V209.834C134.007 210.08 134.529 209.98 135.037 209.98C146.639 209.982 158.241 209.978 169.844 209.974C169.802 209.853 169.949 208.653 169.999 208.535C164.041 206.515 157.934 205.589 151.987 203.534C151.316 203.302 150.71 202.872 150.178 202.308C146.843 198.775 143.452 195.296 140.122 191.757C139.006 190.57 138.014 189.256 136.964 188Z" fill="#FD3E81"/>
<path fill-rule="evenodd" clip-rule="evenodd" d="M169.999 210H133.999V209H169.999V210Z" fill="#D3296A"/>
<path fill-rule="evenodd" clip-rule="evenodd" d="M121.975 202.094C117.744 198.431 113.665 194.587 109.879 190.408C108.831 189.252 108.108 187.758 106.681 187C106.485 189.522 106.194 192.042 106.118 194.568C106.019 197.796 105.66 204.397 105.66 204.397C101.431 206.34 93.006 208.792 92.999 208.679C93.006 208.792 93.025 209.885 92.999 209.997C93.289 210.025 93.443 209.866 93.734 209.866C102.654 209.871 111.575 209.872 120.495 209.866C121.001 209.866 121.522 209.963 121.999 209.682C121.991 207.153 121.983 204.624 121.975 202.094Z" fill="#FD3E81"/>
<path fill-rule="evenodd" clip-rule="evenodd" d="M121.999 210H92.999V209H121.999V210Z" fill="#D3296A"/>
<path fill-rule="evenodd" clip-rule="evenodd" d="M131.993 163C132.207 163 132.424 162.931 132.607 162.785C133.047 162.436 133.129 161.787 132.79 161.335C105.887 125.457 107.007 85.473 107.022 85.073C107.042 84.502 106.609 84.023 106.053 84.001C105.508 83.972 105.031 84.424 105.01 84.995C104.994 85.403 103.832 126.105 131.196 162.597C131.393 162.861 131.692 163 131.993 163Z" fill="#392577"/>
<path fill-rule="evenodd" clip-rule="evenodd" d="M41.1032 15.0652C45.0302 25.5202 39.7372 37.1782 29.2822 41.1042C18.8282 45.0302 7.16921 39.7382 3.24421 29.2832C-0.681789 18.8282 4.61022 7.17018 15.0652 3.24418C25.5192 -0.681819 37.1772 4.61118 41.1032 15.0652Z" fill="#FFB902"/>
<path fill-rule="evenodd" clip-rule="evenodd" d="M39.2802 15.7499C35.7322 6.30268 25.1962 1.51958 15.7492 5.06738C6.30122 8.61518 1.51922 19.1504 5.06722 28.5986V28.5987C8.61422 38.0465 19.1502 42.8289 28.5972 39.281C38.0452 35.7331 42.8282 25.1979 39.2802 15.75V15.7499ZM42.9262 14.3804C38.6222 2.91968 25.8412 -2.88312 14.3802 1.42098C2.91824 5.72518 -2.88278 18.506 1.42122 29.9678C5.72422 41.4299 18.5062 47.2314 29.9662 42.9274C41.4282 38.6233 47.2312 25.8425 42.9262 14.3804Z" fill="#FFCD5F"/>
<path fill-rule="evenodd" clip-rule="evenodd" d="M17.6962 24.9441C18.0322 24.0481 18.9572 23.8401 20.2042 23.8701L18.8772 27.4041C17.7022 26.6411 17.3882 25.7631 17.6962 24.9441ZM24.4172 20.4261L25.7822 16.7911C27.0232 17.6081 27.2833 18.5521 26.9663 19.3981C26.6293 20.2941 25.6782 20.4921 24.4172 20.4261ZM17.6072 30.7831L16.5302 33.6511L19.0902 34.6131L20.1372 31.8221C22.7312 32.6201 25.4622 32.7401 27.2842 32.1681L27.0492 28.5141C25.4132 28.9811 23.3093 28.9801 21.3973 28.4661L23.0042 24.1911C26.1052 24.5671 29.6362 24.8121 31.0112 21.1511C32.0312 18.4361 30.9343 15.3661 27.0613 13.3851L28.1292 10.5441L25.5692 9.58208L24.5212 12.3731C22.5432 11.8051 20.4802 11.6161 18.7362 11.9831L18.8342 15.6131C20.4192 15.3611 21.9142 15.4251 23.2522 15.7541L21.6173 20.1061C18.5243 19.7041 15.0442 19.4781 13.6882 23.0891C12.6882 25.7521 13.7692 28.7871 17.6072 30.7831Z" fill="white"/>
<path fill-rule="evenodd" clip-rule="evenodd" d="M18.1364 45.281C18.0754 45.136 18.0324 44.982 18.0034 44.831C17.8174 43.84 18.1514 42.766 18.8654 42.055C20.1234 40.803 22.4254 40.899 23.7414 42.01C24.8044 40.2563 24.5844 37.7628 25.4994 36.0001C26.9484 33.2076 29.7924 31.4944 34.0734 31.731C35.9074 31.88 38.9394 35.705 40.3054 37.012C40.4794 37.178 40.6584 37.352 40.7464 37.576C41.0184 38.262 40.3454 38.927 39.7584 39.373C36.0914 42.155 32.8193 45.456 30.0663 49.144C29.8433 49.444 29.5704 49.776 29.1964 49.786C28.9154 49.794 28.6684 49.614 28.4474 49.442C26.4854 47.927 24.9284 46.42 22.3244 46.276C21.3744 46.224 20.4234 46.172 19.4734 46.12C19.2374 46.106 18.9944 46.093 18.7784 45.997C18.4754 45.864 18.2664 45.593 18.1364 45.281Z" fill="#A97979"/>
<path fill-rule="evenodd" clip-rule="evenodd" d="M147.448 61.809C144.42 51.6333 141.075 41.2483 132.245 35.5403C130.441 34.3743 128.408 33.4043 126.102 32.6693C117.653 29.9803 108.724 31.6073 100.066 31.8273C92.3374 32.0223 84.7324 31.8403 77.7194 35.7523C73.2724 38.2333 69.7914 42.0113 66.4464 45.7773C64.7514 47.6853 63.1264 50.0143 61.1404 51.6253C58.8674 53.4703 58.9154 52.5453 57.1054 50.8423C54.3564 48.2553 51.7133 45.5433 49.1323 42.7903C47.2023 40.7323 44.2253 35.2793 40.7003 37.0203C40.0043 37.3653 39.4303 37.9093 38.8693 38.4453C37.0923 40.1423 35.3154 41.8393 33.5384 43.5363C31.6814 45.3083 29.7914 47.1273 28.6254 49.4143C28.2894 50.0763 28.0113 50.7913 28.0193 51.5343C28.0353 53.2043 29.3873 54.5233 30.4613 55.6533C31.8693 57.136 33.3134 58.588 34.7294 60.066C39.4504 64.989 44.7054 69.854 48.7294 75.386C51.0794 78.615 54.3414 80.546 58.8854 81.193C62.9544 80.908 66.3793 78.487 69.3953 75.105C71.6003 72.632 73.8273 70.18 76.0613 67.735C77.4533 66.213 78.9633 63.685 80.7763 62.728C80.3753 62.94 79.1034 73.353 78.9524 74.523L127.4 74.631C127.4 74.631 134.927 99.371 136.737 105.382C136.885 105.875 137.229 106.308 137.483 106.769C143.074 105.716 157.706 103.565 159.431 103.542C159.653 101.686 150.992 73.718 147.448 61.809Z" fill="#FFCD5F"/>
<path fill-rule="evenodd" clip-rule="evenodd" d="M86.0043 32.5886C89.8163 31.8988 93.7343 31.8158 97.6963 31.7318C98.3403 31.7182 98.9853 31.7045 99.6303 31.6883C101.75 31.6344 103.887 31.4962 106.028 31.3576C112.632 30.9302 119.286 30.4997 125.666 32.5303C127.972 33.2653 130.005 34.2353 131.809 35.4013C135.135 37.551 137.682 40.3642 139.728 43.5798C136.443 44.6069 133.174 45.508 129.751 45.7511C120.422 46.4139 111.942 43.1587 103.354 39.862C102.069 39.3688 100.782 38.8746 99.4893 38.3925C94.8913 36.678 90.3983 34.7344 86.0043 32.5886ZM140.269 44.4587C140.943 45.5896 141.56 46.7654 142.132 47.9754C128.468 54.7883 123.294 62.125 121.643 68.409C121.067 70.603 120.924 72.651 120.99 74.479L97.0353 74.426C99.2853 72.09 101.179 69.431 102.53 65.988C102.611 65.779 102.697 65.562 102.786 65.338C103.364 63.88 104.062 62.117 104.554 60.314C105.119 58.241 105.435 56.039 104.937 54.1241C104.325 51.7725 102.493 49.5817 100.378 47.7998C98.2533 46.0091 95.7803 44.5769 93.7813 43.7593C92.3733 43.1831 90.3643 42.5763 88.3313 42.2917C86.3153 42.0096 84.1863 42.0307 82.5963 42.7998C80.1743 43.972 78.3363 46.3757 76.8983 48.9506C75.6653 51.1564 74.6913 53.5541 73.8883 55.5297V55.5298C73.7513 55.8679 73.6183 56.194 73.4913 56.504C70.7993 63.04 69.2323 69.032 68.5233 75.446C65.6133 78.576 62.3233 80.783 58.4493 81.054C53.9053 80.407 50.6433 78.476 48.2933 75.247C46.3673 72.599 44.1593 70.104 41.8623 67.682C44.4613 66.09 46.7623 63.956 48.6343 61.83C51.9273 58.09 53.6733 53.5103 54.5893 48.7037C55.2763 49.3774 55.9693 50.0444 56.6693 50.7033C57.0063 51.0205 57.2793 51.3107 57.5143 51.561C58.5423 52.6547 58.8553 52.9876 60.7043 51.4863C62.0863 50.3655 63.2933 48.8972 64.4703 47.465C64.9853 46.8385 65.4953 46.2189 66.0103 45.6383C69.3553 41.8723 72.8363 38.0943 77.2833 35.6133C79.5993 34.3214 81.9803 33.476 84.4083 32.916C89.1963 35.3025 94.1053 37.4521 99.1393 39.3295C100.417 39.8058 101.695 40.2969 102.976 40.7891C111.547 44.0827 120.253 47.4283 129.822 46.7486C133.437 46.4918 136.884 45.523 140.269 44.4587ZM53.7273 47.8525C52.8733 52.7718 51.1843 57.421 47.8833 61.169C45.9923 63.317 43.7023 65.416 41.1553 66.941C40.0243 65.764 38.8773 64.602 37.7363 63.447C36.5743 62.27 35.4183 61.101 34.2933 59.927C33.6623 59.268 33.0243 58.614 32.3873 57.96C31.5963 57.147 30.8053 56.336 30.0253 55.5143C29.9663 55.452 29.9063 55.3892 29.8463 55.3257C28.8063 54.2378 27.5983 52.9732 27.5833 51.3953C27.5753 50.6523 27.8533 49.9373 28.1893 49.2753C29.3553 46.9883 31.2453 45.1693 33.1023 43.3973L38.4333 38.3063C38.9943 37.7703 39.5683 37.2263 40.2643 36.8813C43.0633 35.4989 45.5163 38.6517 47.3743 41.0395C47.8573 41.6591 48.2993 42.2273 48.6963 42.6513C50.3443 44.409 52.0173 46.1501 53.7273 47.8525ZM69.6873 74.152C70.4523 68.353 71.9583 62.852 74.4153 56.885C74.5463 56.567 74.6803 56.237 74.8193 55.8959C75.6233 53.9178 76.5713 51.5853 77.7713 49.4384C79.1823 46.913 80.8933 44.7347 83.0323 43.7C84.3483 43.063 86.2333 43.0078 88.1923 43.282C90.1333 43.5538 92.0613 44.1362 93.4033 44.6849C95.3063 45.4637 97.6903 46.8421 99.7343 48.5645C101.788 50.2957 103.435 52.3206 103.969 54.3757C104.4 56.033 104.141 58.029 103.589 60.051C103.113 61.796 102.437 63.503 101.859 64.964C101.769 65.19 101.682 65.41 101.599 65.623C100.173 69.258 98.1193 71.984 95.6303 74.422L78.5163 74.384C78.5303 74.277 78.5533 74.091 78.5853 73.843C78.8943 71.388 79.9763 62.782 80.3403 62.589C79.0783 63.255 77.9633 64.683 76.9323 66.003C76.4823 66.578 76.0483 67.134 75.6253 67.596C73.6373 69.773 71.6543 71.955 69.6873 74.152ZM121.991 74.481C121.925 72.722 122.059 70.76 122.61 68.663C124.165 62.748 129.076 55.6086 142.55 48.8841C144.365 52.9297 145.718 57.319 147.012 61.67C147.088 61.925 147.167 62.188 147.247 62.458C147.229 62.696 147.211 62.93 147.194 63.156C147.124 64.056 147.064 64.839 147.064 65.361C147.064 73.444 141.918 79.258 135.883 85.113C134.511 86.444 132.97 87.693 131.335 88.868C129.078 81.441 126.964 74.492 126.964 74.492L121.991 74.481ZM131.642 89.877C133.332 95.441 135.052 101.107 135.984 104.191C141.188 97.763 147.614 92.055 154.977 88.208C153.342 82.652 151.451 76.394 149.792 70.906C149.176 68.869 148.593 66.938 148.066 65.188C148.065 65.249 148.064 65.306 148.064 65.361C148.064 73.909 142.6 79.989 136.579 85.831C135.092 87.274 133.415 88.621 131.642 89.877ZM155.265 89.186C148.029 93.005 141.696 98.669 136.565 105.063C136.488 105.159 136.412 105.254 136.336 105.35C136.444 105.646 136.616 105.923 136.789 106.2C136.878 106.342 136.967 106.485 137.047 106.63C142.638 105.577 157.27 103.426 158.995 103.403C159.094 102.579 157.442 96.611 155.265 89.186Z" fill="#FFC11E"/>
<path d="M74.999 55C74.4467 55 73.999 54.5523 73.999 54C73.999 53.4477 74.4467 53 74.999 53C75.5513 53 75.999 53.4477 75.999 54C75.999 54.5523 75.5513 55 74.999 55Z" fill="#56D6A9"/>
<path fill-rule="evenodd" clip-rule="evenodd" d="M151.76 104.111C152.073 104.029 152.388 103.947 152.702 103.867C153.349 103.701 155.432 102.798 156.02 103.042C156.678 103.315 156.798 105.046 156.981 105.782C157.607 108.308 159.188 111.709 158.98 114.321C158.909 115.215 158.364 116.135 157.495 116.355C156.786 116.534 156.053 116.221 155.407 115.88C155.291 115.818 155.149 115.756 155.036 115.823C154.937 115.883 154.914 116.016 154.906 116.132C154.775 118.09 156.461 120.294 154.406 121.696C153.255 122.089 152.074 122.011 150.972 121.172C150.234 122.423 151.072 123.533 151.28 124.669C150.758 125.601 150.175 126.416 148.964 126.64C147.709 126.297 146.9 125.548 146.553 124.185C145.949 121.807 145.182 119.47 144.591 117.09C144.217 115.58 144.303 115.557 142.472 114.301C141.57 114.947 141.431 116.292 140.315 116.78C139.215 117.184 138.136 117.299 137.261 116.139C136.251 114.093 137.707 112.555 138.486 110.867C138.944 110.835 139.103 110.568 139.058 110.14C138.924 108.859 139.047 107.987 140.133 107.511C141.464 106.927 142.99 106.603 144.382 106.185C146.828 105.449 149.288 104.757 151.76 104.111Z" fill="#A97979"/>
<path d="M141.999 80C141.447 80 140.999 79.5523 140.999 79C140.999 78.4477 141.447 78 141.999 78C142.551 78 142.999 78.4477 142.999 79C142.999 79.5523 142.551 80 141.999 80Z" fill="#56D6A9"/>
<path d="M135.712 111.316L160.365 103.604C161.663 103.198 157.983 94.726 156.684 93.976C155.385 93.227 136.512 97.924 134.213 98.906C132.374 99.693 134.446 107.507 135.712 111.316Z" fill="#EEB116"/>
<path d="M45.999 65C45.4467 65 44.999 64.5523 44.999 64C44.999 63.4477 45.4467 63 45.999 63C46.5513 63 46.999 63.4477 46.999 64C46.999 64.5523 46.5513 65 45.999 65Z" fill="#56D6A9"/>
<path d="M101.999 67C101.447 67 100.999 66.5523 100.999 66C100.999 65.4477 101.447 65 101.999 65C102.551 65 102.999 65.4477 102.999 66C102.999 66.5523 102.551 67 101.999 67Z" fill="#56D6A9"/>
<path d="M111.999 45C111.447 45 110.999 44.5523 110.999 44C110.999 43.4477 111.447 43 111.999 43C112.551 43 112.999 43.4477 112.999 44C112.999 44.5523 112.551 45 111.999 45Z" fill="#56D6A9"/>
<path d="M129.999 57C129.447 57 128.999 56.5523 128.999 56C128.999 55.4477 129.447 55 129.999 55C130.551 55 130.999 55.4477 130.999 56C130.999 56.5523 130.551 57 129.999 57Z" fill="#56D6A9"/>
<path d="M31.9993 60.5L49.4993 41.5C50.4203 40.5 42.9993 35 41.4993 35C39.9993 35 25.9993 48.5 24.4993 50.5C23.2993 52.1 28.9993 57.833 31.9993 60.5Z" fill="#EEB116"/>
<path fill-rule="evenodd" clip-rule="evenodd" d="M117.359 19.4771C117.292 19.0931 117.326 18.6491 117.139 18.3371C116.159 16.7001 116.824 15.2671 117.604 13.8301C118.778 11.6671 120.674 10.3961 122.94 9.67308C124.432 9.19808 125.928 9.32008 127.434 9.90408C130.548 11.1111 131.885 13.4311 131.919 16.6411C131.932 17.8581 131.297 18.8811 130.672 19.8271C129.144 22.1361 127.138 23.2501 124.151 22.9491C121.568 22.6881 119.627 21.7261 118.014 19.8211C117.863 19.6431 117.573 19.5821 117.348 19.4671L117.359 19.4771Z" fill="#3D3027"/>
<path fill-rule="evenodd" clip-rule="evenodd" d="M97.478 15.8267C97.15 15.0957 97.044 14.2057 97.02 13.4487C96.99 12.5567 96.946 11.2847 97.27 10.4417C97.524 9.78468 98.166 9.08168 98.652 8.57968C99.759 7.43168 101.19 6.66668 102.699 6.18568C104.191 5.71068 105.687 5.83268 107.193 6.41668C110.308 7.62368 111.645 9.94368 111.678 13.1537C111.691 14.3707 111.056 15.3937 110.431 16.3397C108.904 18.6487 106.897 19.7637 103.91 19.4617C102.31 19.3007 100.749 18.8217 99.432 17.8807C98.833 17.4527 98.141 16.8997 97.73 16.2877C97.634 16.1437 97.551 15.9887 97.478 15.8267Z" fill="#3D3027"/>
<path fill-rule="evenodd" clip-rule="evenodd" d="M122.44 11.7193C122.694 12.4603 122.727 13.2463 122.83 14.0203C122.923 14.7213 122.952 15.4313 123.019 16.2503C124.109 16.6283 125.484 16.6763 125.836 18.1653C126.031 18.9913 126.265 19.8113 125.875 20.6333C125.03 22.4163 123.04 22.7043 120.607 21.3443C117.11 24.9883 112.871 26.5483 108.057 24.5123C105.957 23.6233 104.132 22.1263 103.171 20.0253C102.044 17.5613 101.955 14.4743 102.927 11.9463C103.404 10.7043 104.044 9.48628 104.788 8.38628C105.726 6.99728 107.19 6.11528 108.854 5.85428C109.97 5.67828 111.107 5.73028 112.237 5.72228C112.895 5.71728 113.555 5.69228 114.211 5.74528C116.801 5.95628 119.186 7.40228 120.925 9.33228C121.504 9.97628 122.024 10.6953 122.356 11.4983C122.386 11.5723 122.414 11.6453 122.44 11.7193Z" fill="#A97979"/>
<path fill-rule="evenodd" clip-rule="evenodd" d="M122.428 11.7232C117.242 10.3172 112.225 8.40518 107.168 6.61518C107.179 6.36018 107.162 6.08418 107.43 5.94018C109.29 4.94418 111.374 4.26418 113.506 4.40918C114.562 4.48118 115.596 4.75418 116.559 5.19418C117.418 5.58518 118.401 6.11418 119.131 6.71618C119.51 7.03018 119.831 7.40518 120.15 7.77818C121.082 8.86618 122.386 10.2152 122.428 11.7232Z" fill="#3D3027"/>
<path fill-rule="evenodd" clip-rule="evenodd" d="M120.497 7.30638C120.295 7.39448 120.159 7.50208 120.069 7.61748C119.917 7.81438 119.872 8.07208 119.923 8.38608C119.975 8.70238 120.124 9.05438 120.33 9.40378C120.746 10.1071 121.357 10.7342 121.73 10.9667L121.73 10.9668C121.816 11.0205 121.911 11.0645 122.016 11.0991C122.045 11.0618 122.075 11.0207 122.107 10.9758C122.109 10.9722 122.112 10.9686 122.114 10.9649C122.133 10.9125 122.149 10.855 122.162 10.7924C122.217 10.5122 122.196 10.173 122.143 9.86588V9.86558C122.122 9.74278 122.103 9.59728 122.082 9.44338L122.081 9.43138C122.059 9.27138 122.036 9.09958 122.008 8.92308C121.951 8.56798 121.874 8.20618 121.755 7.90188C121.635 7.59338 121.483 7.37808 121.299 7.27148C121.128 7.17298 120.881 7.14068 120.497 7.30638ZM122.648 10.0752C122.638 9.97488 122.624 9.87768 122.608 9.78588L122.376 9.82588L122.608 9.78618C122.589 9.67188 122.57 9.53368 122.549 9.37488L122.548 9.36888C122.527 9.20928 122.503 9.03178 122.474 8.84828C122.415 8.48328 122.333 8.08178 122.195 7.72988C122.059 7.38218 121.856 7.04818 121.534 6.86268C121.199 6.66918 120.788 6.66658 120.309 6.87318L120.309 6.87348C120.047 6.98738 119.843 7.13968 119.696 7.32818L119.696 7.32848C119.439 7.66108 119.392 8.06538 119.458 8.46278C119.523 8.85788 119.701 9.26658 119.924 9.64398C120.368 10.3942 121.027 11.0846 121.48 11.3671C121.535 11.4017 121.592 11.4328 121.651 11.4608C121.631 11.5131 121.63 11.5727 121.651 11.6291C121.698 11.7508 121.834 11.8119 121.956 11.7654C122.049 11.7299 122.131 11.6837 122.202 11.6294C122.381 11.6596 122.566 11.6714 122.755 11.6688C123.221 11.6623 123.722 11.5674 124.209 11.4236C125.18 11.1368 126.132 10.6443 126.692 10.2105L126.693 10.2104C127.2 9.81638 127.597 9.12548 127.425 8.43388M122.531 11.1921C122.602 11.1963 122.674 11.1979 122.749 11.1968C123.159 11.1912 123.616 11.1068 124.075 10.9709C124.998 10.6985 125.896 10.2305 126.403 9.83728C126.823 9.51128 127.078 8.99438 126.967 8.54798V8.54788C126.842 8.04568 126.262 7.69678 125.67 7.70388M122.531 11.1921C122.532 11.1915 122.532 11.1909 122.532 11.1903C122.685 10.9656 122.844 10.6934 122.997 10.4198C123.087 10.2588 123.18 10.087 123.269 9.92318C123.339 9.79258 123.407 9.66708 123.469 9.55628C123.616 9.29088 123.734 9.09088 123.817 8.98718M123.817 8.98718C123.916 8.86388 124.008 8.73978 124.093 8.62638L123.817 8.98718ZM124.093 8.62638C124.141 8.56198 124.186 8.50108 124.229 8.44568L124.093 8.62638ZM124.229 8.44568C124.352 8.28548 124.463 8.15458 124.585 8.04798L124.229 8.44568ZM124.585 8.04798C124.816 7.84658 125.114 7.71078 125.67 7.70388L124.585 8.04798Z" fill="#B68DF5"/>
<path fill-rule="evenodd" clip-rule="evenodd" d="M104.069 3.87048C104.532 4.78948 105.328 5.53758 106.269 5.95538L105.52 4.65318C105.301 4.27178 105.1 3.94628 104.791 3.78328C104.654 3.71108 104.477 3.68938 104.321 3.72498C104.208 3.75098 104.123 3.80248 104.069 3.87048ZM106.651 6.59918C105.322 6.20228 104.179 5.22078 103.59 3.96478C103.563 3.90658 103.561 3.83968 103.584 3.77958C103.696 3.48768 103.954 3.32488 104.216 3.26498C104.476 3.20528 104.77 3.23828 105.011 3.36598C105.461 3.60298 105.723 4.05748 105.93 4.41808L106.667 5.70158C106.745 5.26838 106.86 4.84238 107.013 4.42898C107.114 4.15428 107.278 3.84978 107.501 3.62468C107.725 3.39828 108.037 3.22718 108.41 3.30558C108.873 3.40248 109.072 3.80888 109.1 4.19128C109.128 4.57278 108.999 5.00668 108.728 5.30058C108.484 5.56538 108.183 5.75588 107.911 5.92728L107.901 5.93398C107.885 5.94408 107.869 5.95418 107.853 5.96418C107.975 5.95508 108.085 6.04198 108.104 6.16518C108.123 6.29418 108.033 6.41408 107.904 6.43308C107.758 6.45458 107.612 6.47588 107.467 6.49708C107.321 6.51838 107.175 6.53958 107.029 6.56108C107.02 6.56238 107.011 6.56318 107.003 6.56348C106.97 6.60928 106.92 6.64298 106.863 6.65588C106.786 6.67308 106.707 6.65068 106.651 6.59918ZM107.112 5.90118C107.284 5.76518 107.466 5.65028 107.636 5.54278L107.648 5.53498C107.932 5.35588 108.183 5.19548 108.38 4.98088C108.553 4.79378 108.648 4.49238 108.629 4.22558C108.61 3.95978 108.491 3.80478 108.313 3.76758C108.154 3.73418 107.996 3.79548 107.837 3.95668C107.676 4.11928 107.542 4.35798 107.455 4.59218C107.299 5.01668 107.184 5.45538 107.112 5.90118Z" fill="#B68DF5"/>
</svg>
