<svg width="78" height="84" viewBox="0 0 78 84" fill="none" xmlns="http://www.w3.org/2000/svg">
<path fill-rule="evenodd" clip-rule="evenodd" d="M32.3914 6.24614C31.032 6.24614 29.9258 7.35195 29.9258 8.71108V67.6267C29.9258 68.9857 31.032 70.0915 32.3914 70.0915H65.8734C67.2323 70.0915 68.3382 68.9857 68.3382 67.6267V8.71108C68.3382 7.35195 67.2323 6.24614 65.8734 6.24614H32.3914ZM65.8734 70.5974H32.3914C30.7524 70.5974 29.4199 69.2648 29.4199 67.6267V8.711C29.4199 7.07296 30.7524 5.74045 32.3914 5.74045H65.8734C67.5111 5.74045 68.844 7.07296 68.844 8.711V67.6267C68.844 69.2648 67.5111 70.5974 65.8734 70.5974Z" fill="#766CFD"/>
<path fill-rule="evenodd" clip-rule="evenodd" d="M55.3467 8.74555H42.9301C42.2782 7.82814 41.6267 6.91076 40.9756 5.99304H57.2883C56.6411 6.91076 55.9939 7.82814 55.3467 8.74555Z" fill="#766CFD"/>
<path fill-rule="evenodd" clip-rule="evenodd" d="M74.6978 24.4943C74.6978 27.2739 73.8521 29.8636 72.4042 32.0088C71.8758 32.8017 71.2525 33.531 70.565 34.1862C70.3014 34.4503 70.0153 34.6936 69.7301 34.926C69.5931 35.0424 69.4449 35.1585 69.3075 35.2642C69.2971 35.2642 69.2971 35.2747 69.2862 35.2747C67.046 36.945 64.2873 37.9277 61.2751 37.9277C59.8693 37.9277 58.506 37.7058 57.2268 37.3044C57.0469 37.251 56.8675 37.1878 56.6876 37.1245C55.8527 36.818 55.0603 36.4374 54.3095 35.9831C53.0095 35.1903 51.8469 34.1862 50.8854 33.013C48.9829 30.688 47.8416 27.7286 47.8416 24.4943C47.8416 17.0745 53.8552 11.0608 61.2751 11.0608C68.6945 11.0608 74.6978 17.0745 74.6978 24.4943Z" fill="#56D6A9"/>
<path fill-rule="evenodd" clip-rule="evenodd" d="M69.7301 34.926C69.5931 35.0424 69.4449 35.1586 69.3079 35.2642C69.297 35.2642 69.297 35.2747 69.2862 35.2747C67.046 36.9446 64.2873 37.9277 61.2751 37.9277C59.8693 37.9277 58.506 37.7058 57.2268 37.3039C56.9416 35.7294 56.6459 34.1544 56.3603 32.5794C56.2753 32.1673 56.2016 31.7549 56.1279 31.3429C55.7473 29.2712 55.3667 27.2103 54.9866 25.1386C55.0499 25.0753 55.1236 25.0014 55.2189 24.9063C55.4725 24.674 55.8531 24.3358 56.3499 23.9658C56.9945 23.4901 57.8293 22.9721 58.8441 22.5495C59.9959 22.063 61.3912 21.7146 62.9769 21.7251C63.1351 21.7251 63.2834 21.7356 63.4416 21.7356C64.3298 21.7884 65.1326 21.9469 65.8409 22.1585C66.5809 22.3697 67.2146 22.6444 67.7222 22.8982C67.9862 23.0462 68.219 23.1729 68.4093 23.2893C68.6525 25.3928 68.8952 27.5062 69.128 29.6097C69.3391 31.3852 69.5402 33.1505 69.7301 34.926Z" fill="#FF9292"/>
<path fill-rule="evenodd" clip-rule="evenodd" d="M70.565 34.1861C70.3014 34.4502 70.0158 34.6936 69.7301 34.9262C69.5931 35.0424 69.4449 35.1585 69.3075 35.2641C69.2971 35.2641 69.2971 35.2746 69.2862 35.2746C67.0456 36.9446 64.2873 37.9277 61.2751 37.9277C59.8693 37.9277 58.506 37.7058 57.2268 37.3044C57.0469 37.2511 56.8675 37.1878 56.688 37.1245C56.4132 35.5705 56.1384 34.0171 55.8635 32.4635C55.8423 32.3578 55.8215 32.2624 55.8107 32.157C55.3772 29.7471 54.9545 27.3372 54.5215 24.9275C54.5635 24.8744 54.6268 24.8111 54.7118 24.7268C54.9225 24.5047 55.2714 24.1665 55.7261 23.7862C55.8423 23.7016 55.9585 23.617 56.0647 23.5431C56.9308 22.8772 58.1146 22.1374 59.5733 21.6617C59.5841 21.6617 59.5945 21.6512 59.6053 21.6512C59.9326 21.5456 60.2603 21.4609 60.6093 21.3868C61.3176 21.2284 62.0783 21.1332 62.892 21.1437H63.0294C64.1707 21.1755 65.1959 21.3763 66.0629 21.6512C66.8132 21.8943 67.4474 22.1902 67.9333 22.4438C68.0179 22.4861 68.092 22.5284 68.1557 22.56C68.2611 22.6233 68.3564 22.6764 68.4409 22.7292C68.4409 22.7505 68.4514 22.782 68.4514 22.8031C68.8636 25.0122 69.2758 27.221 69.6881 29.4302C69.9733 31.0154 70.2694 32.6006 70.565 34.1861Z" fill="white"/>
<path fill-rule="evenodd" clip-rule="evenodd" d="M72.4043 32.0088C71.8759 32.8014 71.2525 33.531 70.565 34.1862C70.301 34.4503 70.0158 34.6934 69.7302 34.9259C69.5927 35.0424 69.4449 35.1585 69.3075 35.2642C69.2967 35.2642 69.2967 35.2747 69.2863 35.2747C69.2546 35.2852 69.223 35.2852 69.1913 35.2963C69.1593 35.2219 69.1385 35.1375 69.096 35.0739C69.0431 34.9259 69.001 34.7888 68.9486 34.6408C68.9165 34.588 68.8953 34.5244 68.874 34.4503C68.7895 34.2603 68.7158 34.0595 68.6417 33.8585C68.5884 33.7318 68.5359 33.5838 68.4726 33.4464C68.441 33.3723 68.4089 33.2984 68.3881 33.2246C68.3669 33.2033 68.3669 33.1823 68.3565 33.1505C68.3565 33.1505 68.3669 33.14 68.3565 33.1292C68.2715 32.9179 68.1874 32.7171 68.1024 32.5055C68.0604 32.4002 68.0179 32.2942 67.9759 32.1781C67.8701 31.9245 67.7856 31.6919 67.6902 31.438C67.5424 31.026 67.3733 30.6349 67.2251 30.2334C67.2147 30.2015 67.2147 30.1806 67.2043 30.1595C67.141 30.0113 67.0881 29.8741 67.0244 29.7153C66.9186 29.4408 66.8133 29.1553 66.6967 28.8804L66.3694 25.8472C66.3694 25.7839 66.3694 25.7205 66.3902 25.6569C66.8345 24.7374 67.278 23.8286 67.7223 22.8982C67.796 22.7503 67.8701 22.5918 67.9334 22.4439C67.9442 22.4334 67.9546 22.4229 67.9546 22.4124C68.0179 22.4544 68.092 22.5072 68.1553 22.56C68.2611 22.6338 68.3565 22.7083 68.4514 22.8031C68.8636 23.1413 69.2442 23.5747 69.5719 24.0927C69.8676 24.5576 70.0791 25.0332 70.2165 25.4666C70.2165 25.4666 70.5546 26.1959 71.2525 28.2676C71.3158 28.4576 71.3791 28.6583 71.4428 28.8699C71.5798 29.2715 71.7168 29.7153 71.865 30.2124C71.95 30.4555 72.0241 30.7091 72.0978 30.9521L72.4043 32.0088Z" fill="#FF9292"/>
<path fill-rule="evenodd" clip-rule="evenodd" d="M59.8526 20.044C61.0165 20.1076 62.0416 19.071 62.3273 17.647C62.3693 17.4642 62.3958 17.2621 62.4101 17.0595C62.4136 16.9221 62.4175 16.7846 62.4144 16.6527C62.4114 16.6104 62.4084 16.5681 62.3988 16.5316C62.2896 15.104 61.4335 13.9774 60.3177 13.8276C60.27 13.8242 60.2219 13.8212 60.1803 13.8239C59.5301 13.7844 58.9149 14.0948 58.4585 14.6261C58.035 15.1058 57.7376 15.7677 57.6427 16.5223C57.6358 16.6175 57.6236 16.7064 57.6223 16.8081C57.5265 18.527 58.5274 19.9751 59.8526 20.044Z" fill="#FF9292"/>
<path fill-rule="evenodd" clip-rule="evenodd" d="M61.4814 16.5522C61.3643 16.8505 61.4896 17.1789 61.7614 17.2851C62.0332 17.3917 62.3483 17.236 62.4649 16.9374C62.582 16.639 62.4563 16.3109 62.1845 16.2044C61.9131 16.0978 61.5984 16.2538 61.4814 16.5522Z" fill="#FF9292"/>
<path fill-rule="evenodd" clip-rule="evenodd" d="M62.2513 14.4068C62.3085 14.4949 62.4611 14.7481 62.5599 15.3535C62.739 16.4513 62.5994 17.8361 62.2717 17.8793C62.0992 17.9022 61.8443 17.5575 61.8928 17.3097C61.9383 17.0771 62.2236 17.0756 62.3176 16.8072C62.4095 16.5446 62.2868 16.1211 62.0094 16.0584C61.8135 16.0136 61.5699 16.1554 61.4368 16.4106C61.4069 16.3346 61.162 15.748 60.5117 15.5519C60.1281 15.436 59.7679 15.5645 59.3448 15.706C58.8784 15.8617 58.8728 15.9645 58.4588 16.1023C58.148 16.2058 57.5229 16.4081 57.0712 16.1517C56.4847 15.8187 56.2931 14.766 56.6694 14.0531C57.0214 13.3856 57.8302 13.0941 58.4202 13.0953C59.0912 13.0968 59.4562 13.4774 60.5386 13.4873C60.6916 13.4888 60.7666 13.4789 60.9079 13.504C61.7502 13.6525 62.2231 14.3626 62.2513 14.4068Z" fill="#766CFD"/>
<path fill-rule="evenodd" clip-rule="evenodd" d="M72.6774 28.4647C70.3327 29.2221 67.9876 29.9798 65.6433 30.7375L64.7183 24.7043C65.1678 23.6881 65.6173 22.6719 66.0664 21.6553C66.7062 21.7496 68.9512 22.1591 70.7402 24.1487C72.2846 25.8679 72.5976 27.7728 72.6774 28.4647Z" fill="white"/>
<path fill-rule="evenodd" clip-rule="evenodd" d="M56.6033 27.929L56.2751 30.9625C56.2227 31.0892 56.1698 31.2161 56.1278 31.3431C56.0645 31.4911 56.0007 31.6495 55.9479 31.7974C55.895 31.9244 55.8525 32.0408 55.8109 32.157C55.7892 32.1885 55.7788 32.2095 55.7684 32.2413C55.7476 32.305 55.7259 32.3578 55.7047 32.4211C55.5673 32.7803 55.4195 33.1504 55.282 33.5204C55.1867 33.774 55.1026 34.0066 54.9968 34.2602C54.9543 34.3763 54.9123 34.482 54.8698 34.5879C54.7853 34.7992 54.7007 35 54.6158 35.2113C54.6054 35.2218 54.6158 35.2326 54.6158 35.2326C54.6054 35.2641 54.6054 35.2851 54.5846 35.3067C54.5633 35.3805 54.5317 35.4544 54.4996 35.5285C54.4363 35.6659 54.3839 35.8136 54.331 35.9405C54.3201 35.9513 54.3201 35.9724 54.3093 35.9827C53.0093 35.1902 51.8471 34.1861 50.8853 33.0129C50.9485 32.7803 51.0227 32.5267 51.1072 32.2942C51.213 31.9559 51.3079 31.6495 51.3929 31.3641C51.509 30.9943 51.6148 30.6561 51.7201 30.3497C52.4176 28.278 52.7562 27.5487 52.7562 27.5487C52.8931 27.1154 53.1047 26.6397 53.4007 26.1745C53.7705 25.5827 54.2252 25.0965 54.7116 24.7267C54.8065 24.6421 54.9123 24.568 55.0176 24.4942C55.0809 24.6316 55.1446 24.769 55.2188 24.9065C55.673 25.8576 56.1278 26.7981 56.5825 27.739C56.6033 27.8023 56.6033 27.8656 56.6033 27.929Z" fill="#FF9292"/>
<path fill-rule="evenodd" clip-rule="evenodd" d="M50.7021 31.1952C52.9146 31.7376 55.1271 32.28 57.3391 32.8224L58.2642 26.7889C57.5294 25.706 56.7947 24.6224 56.0595 23.5391C55.196 24.1486 54.0278 25.1209 52.948 26.5708C51.6268 28.3463 51.0069 30.0755 50.7021 31.1952Z" fill="white"/>
<path fill-rule="evenodd" clip-rule="evenodd" d="M14.7229 6.19396H16.3168C16.0996 5.04554 15.8828 3.89738 15.6656 2.74927C15.3511 3.89738 15.0373 5.04554 14.7229 6.19396Z" fill="#F5C84E"/>
<path fill-rule="evenodd" clip-rule="evenodd" d="M14.7229 6.19403H16.3168C16.0996 7.34214 15.8828 8.49056 15.6656 9.63872C15.3511 8.49056 15.0373 7.34214 14.7229 6.19403Z" fill="#F5C84E"/>
<path fill-rule="evenodd" clip-rule="evenodd" d="M15.6531 5.39691V6.99077C16.5142 6.7736 17.3754 6.55677 18.2366 6.33964C17.3754 6.0252 16.5142 5.71136 15.6531 5.39691Z" fill="#F5C84E"/>
<path fill-rule="evenodd" clip-rule="evenodd" d="M15.6531 5.39691V6.99077C14.7919 6.7736 13.9308 6.55677 13.0696 6.33964C13.9308 6.0252 14.7919 5.71136 15.6531 5.39691Z" fill="#F5C84E"/>
<path fill-rule="evenodd" clip-rule="evenodd" d="M73.7673 12.7964H75.3608C75.1441 11.6483 74.9269 10.4998 74.7102 9.35168C74.3959 10.4998 74.0816 11.6483 73.7673 12.7964Z" fill="#F5C84E"/>
<path fill-rule="evenodd" clip-rule="evenodd" d="M73.7673 12.7963H75.3608C75.1441 13.9448 74.9269 15.0932 74.7102 16.241C74.3959 15.0932 74.0816 13.9448 73.7673 12.7963Z" fill="#F5C84E"/>
<path fill-rule="evenodd" clip-rule="evenodd" d="M74.6978 11.9994V13.5933C75.5591 13.3764 76.42 13.1593 77.2813 12.9424L74.6978 11.9994Z" fill="#F5C84E"/>
<path fill-rule="evenodd" clip-rule="evenodd" d="M74.6978 11.9994V13.5933C73.8365 13.3764 72.9756 13.1593 72.1143 12.9424L74.6978 11.9994Z" fill="#F5C84E"/>
<path fill-rule="evenodd" clip-rule="evenodd" d="M53.6545 20.801H54.4539C54.3451 20.2252 54.2363 19.6491 54.1275 19.0731C53.9697 19.6491 53.8123 20.2252 53.6545 20.801Z" fill="#F5C84E"/>
<path fill-rule="evenodd" clip-rule="evenodd" d="M53.6545 20.8011H54.4539C54.3451 21.3772 54.2363 21.9529 54.1275 22.5293C53.9697 21.9529 53.8123 21.3772 53.6545 20.8011Z" fill="#F5C84E"/>
<path fill-rule="evenodd" clip-rule="evenodd" d="M54.1211 20.4014V21.2011L55.4172 20.8743C54.985 20.7167 54.5528 20.5592 54.1211 20.4014Z" fill="#F5C84E"/>
<path fill-rule="evenodd" clip-rule="evenodd" d="M54.1211 20.4014V21.2011L52.8254 20.8743C53.2572 20.7167 53.6894 20.5592 54.1211 20.4014Z" fill="#F5C84E"/>
<path fill-rule="evenodd" clip-rule="evenodd" d="M1.10596 30.2387H2.17193C2.02675 29.4708 1.88158 28.7027 1.73637 27.9344C1.52604 28.7027 1.31632 29.4708 1.10596 30.2387Z" fill="#F5C84E"/>
<path fill-rule="evenodd" clip-rule="evenodd" d="M1.10596 30.2387H2.17193C2.02675 31.0063 1.88158 31.7745 1.73637 32.5426C1.52604 31.7745 1.31632 31.0063 1.10596 30.2387Z" fill="#F5C84E"/>
<path fill-rule="evenodd" clip-rule="evenodd" d="M1.72827 29.7057V30.7717C2.30406 30.6262 2.88011 30.4813 3.45621 30.3362C2.88011 30.1258 2.30406 29.9158 1.72827 29.7057Z" fill="#F5C84E"/>
<path fill-rule="evenodd" clip-rule="evenodd" d="M1.72824 29.7057V30.7717C1.15215 30.6262 0.576398 30.4813 0 30.3362C0.576398 30.1258 1.15215 29.9158 1.72824 29.7057Z" fill="#F5C84E"/>
<path fill-rule="evenodd" clip-rule="evenodd" d="M25.1177 2.58319H26.313C26.1503 1.72204 25.9875 0.860847 25.8247 0C25.589 0.860847 25.3533 1.72204 25.1177 2.58319Z" fill="#F5C84E"/>
<path fill-rule="evenodd" clip-rule="evenodd" d="M25.1177 2.58319H26.313C26.1503 3.44438 25.9875 4.30554 25.8247 5.16673C25.589 4.30554 25.3533 3.44438 25.1177 2.58319Z" fill="#F5C84E"/>
<path fill-rule="evenodd" clip-rule="evenodd" d="M25.8152 1.98569V3.18109C26.4611 3.01828 27.1068 2.85551 27.7527 2.69274C27.1068 2.45705 26.4611 2.22137 25.8152 1.98569Z" fill="#F5C84E"/>
<path fill-rule="evenodd" clip-rule="evenodd" d="M25.8153 1.98569V3.18109C25.1695 3.01828 24.5236 2.85551 23.8777 2.69274C24.5236 2.45705 25.1695 2.22137 25.8153 1.98569Z" fill="#F5C84E"/>
<path fill-rule="evenodd" clip-rule="evenodd" d="M47.0939 11.1812V17.9672C47.0939 18.2396 46.8729 18.4598 46.6006 18.4598H46.0857C45.8451 18.4598 45.6392 18.6341 45.5993 18.8713L45.4051 20.0305C45.3366 20.4411 44.8221 20.5868 44.5486 20.2743C44.067 19.7256 43.5858 19.1768 43.1042 18.6279C43.0106 18.5213 42.8758 18.4598 42.734 18.4598H35.175C34.9028 18.4598 34.6821 18.2396 34.6821 17.9672V11.1812C34.6821 10.9088 34.9028 10.6883 35.175 10.6883H46.6006C46.8729 10.6883 47.0939 10.9088 47.0939 11.1812Z" fill="#56D6A9"/>
<path fill-rule="evenodd" clip-rule="evenodd" d="M36.6965 12.7964H45.6651C45.8654 12.7964 46.0288 12.633 46.0288 12.4329C46.0288 12.233 45.8654 12.0693 45.6651 12.0693H36.6965C36.4966 12.0693 36.3328 12.233 36.3328 12.4329C36.3328 12.633 36.4966 12.7964 36.6965 12.7964Z" fill="white"/>
<path fill-rule="evenodd" clip-rule="evenodd" d="M39.6046 14.8488H45.7934C45.8935 14.8488 45.9759 14.7666 45.9759 14.6662V14.3042C45.9759 14.2038 45.8935 14.1216 45.7934 14.1216H39.6046C39.5045 14.1216 39.4221 14.2038 39.4221 14.3039V14.6662C39.4221 14.7666 39.5045 14.8488 39.6046 14.8488Z" fill="white"/>
<path fill-rule="evenodd" clip-rule="evenodd" d="M34.15 27.2343C34.15 27.2343 31.5526 23.7532 32.0598 23.2407C32.3567 22.9417 33.6645 24.4865 33.6645 24.4865L33.9831 24.2888C33.9831 24.2888 32.4595 20.8849 32.9675 20.7734C33.4751 20.6621 35.0478 23.6083 35.0478 23.6083C35.268 23.3217 35.5181 23.2577 35.7882 23.3396C35.7882 23.3396 36.9516 22.8179 37.4562 23.5169C37.9608 24.2156 38.3101 29.2711 38.3101 29.2711L34.5298 29.15L34.15 27.2343Z" fill="#FFBA9A"/>
<path fill-rule="evenodd" clip-rule="evenodd" d="M19.6627 41.1177C18.2099 41.129 16.76 41.2391 15.3074 41.2607C15.0912 41.2642 12.663 41.2816 12.6624 41.308C12.6988 39.9815 12.4706 36.8904 12.3479 36.7192C11.8432 36.0113 10.6086 38.9386 10.4579 39.3599C10.0974 40.3669 9.84596 41.4099 10.1153 42.4966C10.4421 43.8161 11.3203 44.9666 12.6012 45.488C12.575 45.5669 12.5484 45.6463 12.5212 45.7252C12.1465 46.8093 11.6081 47.8063 11.0917 48.8254C10.7281 49.5428 10.4233 50.3621 9.95316 51.0188C8.62927 50.7206 7.49811 50.0417 6.46552 49.1952C4.76909 47.8046 3.78934 45.9909 3.37203 43.8491C2.88151 41.3336 3.21602 38.9143 4.15784 36.5558C4.93438 34.6109 6.089 32.9154 7.57999 31.4538C9.42215 29.6477 11.6298 28.5438 14.1719 28.1138C14.5858 28.044 15.0065 28.0113 15.4241 27.9615C16.3156 27.9714 17.207 28.0001 18.0982 27.9461C19.0495 28.1274 19.9793 28.3739 20.8543 28.8039C21.9808 29.3574 22.9909 30.0737 23.8493 30.988C25.0104 32.2254 26.4603 32.8274 28.1213 32.8567C30.5128 32.8994 32.5931 31.5946 33.1449 29.122C33.1579 29.0643 33.2012 29.0127 33.2307 28.9583C34.7128 29.0321 36.187 28.8555 37.6661 28.8292C38.7173 28.7949 39.7684 28.7582 40.8196 28.7297C41.0268 28.7242 41.2384 28.6788 41.4408 28.7517C42.4582 33.7284 39.302 39.6564 34.1709 40.6331C33.4193 40.7761 32.649 40.7783 31.8835 40.7805C27.7797 40.7909 23.7307 41.0856 19.6627 41.1177Z" fill="#56D6A9"/>
<path fill-rule="evenodd" clip-rule="evenodd" d="M9.95322 51.0188C10.0502 51.1562 10.9923 51.7423 11.0618 51.959C10.5954 52.51 10.1732 53.0991 9.63786 53.5902C9.6122 53.6141 9.61189 53.6661 9.59893 53.7077C9.59616 53.8772 9.69625 53.9678 9.86613 54.0289C10.0283 54.0874 10.4895 53.8421 10.6448 53.7801C12.0663 53.2118 13.1085 52.1329 13.9335 50.8701C14.306 50.2997 14.6665 49.6247 14.4833 48.9689C14.303 48.3226 13.6626 47.9342 13.0751 47.6104C12.8707 47.4972 12.1373 46.9419 11.9239 47.0421C11.8232 47.0893 11.7281 47.4162 11.6818 47.512C11.4504 47.9879 11.2162 48.463 10.9821 48.9381C10.7474 49.4141 10.5126 49.89 10.2769 50.3656C10.2488 50.4223 9.91832 50.9694 9.95322 51.0188Z" fill="#FFBA9A"/>
<path fill-rule="evenodd" clip-rule="evenodd" d="M29.5864 83.0698C29.7442 82.9823 29.9159 83.0213 30.0815 83.0213C34.3911 83.0191 38.7012 83.0191 43.0109 83.0213C43.176 83.0213 43.3481 82.9827 43.5059 83.0703C43.3975 83.1687 43.2653 83.1249 43.1444 83.1249C38.7454 83.1271 34.3465 83.1266 29.9475 83.1249C29.8261 83.1245 29.6944 83.1687 29.5864 83.0698Z" fill="#56D6A9"/>
<path fill-rule="evenodd" clip-rule="evenodd" d="M19.0365 23.547C18.9676 23.1065 18.7776 22.6636 18.4733 22.301C18.4218 22.2868 18.3569 22.2858 18.3696 22.2086C18.3736 22.2074 18.3773 22.2074 18.3813 22.2062C18.17 21.732 17.7487 21.4636 17.3311 21.23C16.5793 20.8103 15.7508 20.7365 14.9178 20.915C13.4447 21.231 12.3531 22.6692 12.4003 23.9841C12.4112 24.293 12.4164 24.6022 12.4244 24.9111C12.4464 24.9225 12.4667 24.9299 12.4853 24.9336C12.4667 24.9299 12.4464 24.9225 12.4244 24.9111C12.3892 24.9994 12.4779 25.0575 12.481 25.1585C12.2898 25.3043 12.0946 25.4674 11.9358 25.6675C11.8394 26.1441 11.8765 26.597 12.3315 26.8669C12.7105 27.0918 13.0994 27.0238 13.4348 26.7215C13.6902 26.7495 13.8608 26.9398 14.0578 27.0671C14.9576 27.6472 15.9411 27.6555 16.8829 27.3343C17.8806 26.9942 18.5694 26.2442 18.9228 25.2237C19.1128 24.6744 19.1223 24.0962 19.0365 23.547Z" fill="#FFBA9A"/>
<path fill-rule="evenodd" clip-rule="evenodd" d="M17.7857 22.3106C16.1047 23.0698 14.3231 23.6622 13.0798 25.1473L12.3765 25.1057C12.307 24.832 12.2168 24.562 12.1708 24.2846C12.0213 23.379 12.2289 22.697 13.0366 22.0696C14.6113 20.8473 16.059 19.4617 17.5692 18.1551C17.8623 17.9015 18.0659 17.4901 18.5897 17.5037C19.2307 18.4924 19.0846 19.5908 19.0478 20.6744C18.7355 21.3091 18.3046 21.8435 17.7857 22.3106Z" fill="#FD3E81"/>
<path fill-rule="evenodd" clip-rule="evenodd" d="M24.8945 39.2302C24.8982 39.2297 24.9022 39.2297 24.9059 39.2292C24.9056 39.2264 24.9059 39.2245 24.9056 39.2217L24.8945 39.2302Z" fill="#064034"/>
<path fill-rule="evenodd" clip-rule="evenodd" d="M30.6921 57.7252C32.9358 57.7295 35.1799 57.733 37.4231 57.7386C37.6516 57.7391 37.8796 57.7499 38.1076 57.7564C38.0395 58.8453 38.297 59.0811 38.1076 60.1639C38.5883 60.4769 40.4194 61.0231 40.9044 61.2368C41.9747 61.7084 42.2543 62.3097 42.2543 63.0258C42.0878 63.0344 41.9218 63.0505 41.7553 63.0505C37.8384 63.0518 33.9211 63.0514 30.0037 63.0501C29.8793 63.0501 29.7553 63.0336 29.6313 63.0249C29.7115 62.6868 29.7896 62.3474 29.8732 62.0097C30.223 60.5961 30.4779 59.1643 30.6921 57.7252Z" fill="#B68DF5"/>
<path fill-rule="evenodd" clip-rule="evenodd" d="M29.6315 63.0253C29.7555 63.0336 29.8799 63.05 30.0039 63.05C33.9212 63.0513 37.8386 63.0518 41.7559 63.0505C41.922 63.0505 42.088 63.0344 42.2544 63.0258C45.1384 63.031 48.0223 63.0357 50.9067 63.0409C51.2145 63.0414 51.5227 63.0409 51.885 63.0409V63.7705C51.885 68.8504 51.8846 77.302 51.8859 82.3824C51.8859 82.6121 51.8981 82.8414 51.9046 83.0712C51.8226 83.082 51.7407 83.1015 51.6588 83.1019C49.2816 83.108 46.9044 83.1128 44.5272 83.1145C44.4704 83.1145 44.414 83.0746 44.3568 83.0538C44.5579 82.9667 44.7699 83.01 44.9762 83.0096C46.9416 83.0061 48.907 83.0074 50.8724 83.0074H51.4724C51.5768 82.1348 51.5517 63.888 51.4524 63.4319C49.0579 63.4315 46.6642 63.4315 44.2216 63.4315V64.1398C44.2216 69.075 44.222 77.3826 44.2211 82.3186C44.2207 82.5479 44.2086 82.7777 44.2025 83.0074C44.0924 83.0057 43.9818 83.0044 43.8722 83.0022C43.8687 82.7721 43.8618 82.5419 43.8618 82.3117C43.8613 77.3718 43.8613 69.0598 43.8613 64.119V63.4263H29.7776V64.1255C29.7776 69.0659 29.778 77.3778 29.7767 82.3182C29.7767 82.5479 29.7641 82.7777 29.7572 83.0074C29.6523 83.007 29.5478 83.0066 29.4429 83.0057C29.4356 82.8809 29.4213 82.756 29.4213 82.6316C29.42 77.3865 29.42 68.7694 29.4217 63.5247C29.4217 63.3812 29.3896 63.2325 29.4637 63.086C29.5162 63.0669 29.5739 63.0461 29.6315 63.0253Z" fill="#2FC775"/>
<path fill-rule="evenodd" clip-rule="evenodd" d="M9.85066 78.0996C12.4439 78.1035 15.0372 78.1065 17.6304 78.1117C17.86 78.1122 18.0896 78.1247 18.3189 78.1317C18.211 79.2886 17.88 79.4841 17.6829 80.6459C17.738 80.6788 17.8036 80.7304 17.8778 80.7607C18.6625 81.0828 19.9806 81.7469 20.7601 82.0811C21.0814 82.2185 21.2865 82.6941 21.189 83.0781C21.0544 83.1613 20.9045 83.1319 20.7601 83.1319C16.8696 83.1332 12.9791 83.1332 9.0886 83.131C8.96541 83.131 8.84187 83.1046 8.71863 83.0903C9.09077 81.4821 9.45156 79.8717 9.74767 78.2474C9.75716 78.1941 9.81511 78.149 9.85066 78.0996Z" fill="#B68DF5"/>
<path d="M8.71863 83.1535L8.87191 82.3876L21.2865 82.5406L21.1332 83.1535H8.71863Z" fill="#7E40D6"/>
<path fill-rule="evenodd" clip-rule="evenodd" d="M43.8612 82.3117C43.8608 77.3718 43.8612 69.0598 43.8612 64.119V63.4263H29.777V64.1255C29.777 69.0659 29.7775 77.3778 29.7762 82.3182C29.7762 82.5484 29.7636 82.7781 29.7571 83.0079C29.8104 83.0243 29.8646 83.0408 29.9183 83.0573C30.0748 82.9702 30.2456 83.0092 30.4095 83.0092C34.6866 83.007 38.9638 83.007 43.2409 83.0092C43.4048 83.0092 43.5755 82.971 43.7316 83.0582C43.7784 83.0391 43.8248 83.0209 43.872 83.0027C43.8681 82.7725 43.8612 82.5419 43.8612 82.3117Z" fill="#56D6A9"/>
<path fill-rule="evenodd" clip-rule="evenodd" d="M51.4523 63.4319C49.0582 63.4319 46.6641 63.4319 44.2215 63.4319V64.1398C44.2215 69.0754 44.2219 77.383 44.2206 82.3186C44.2206 82.5484 44.2089 82.7777 44.2024 83.0074C44.254 83.0226 44.3056 83.0387 44.3567 83.0538C44.5578 82.9671 44.7698 83.01 44.9762 83.0096C46.9416 83.0061 48.9065 83.0074 50.8723 83.0074H51.4723C51.5767 82.1349 51.5516 63.888 51.4523 63.4319Z" fill="#2FC775"/>
<path fill-rule="evenodd" clip-rule="evenodd" d="M49.0028 71.199C49.0765 71.2042 49.1501 71.2138 49.2238 71.2138C51.5473 71.2146 53.8707 71.2146 56.1942 71.2142C56.2926 71.2142 56.3914 71.2047 56.4898 71.1995C58.2003 71.2025 59.9113 71.2055 61.6218 71.2081C61.8043 71.2086 61.9872 71.2081 62.2022 71.2081V71.6412C62.2022 74.6543 62.2018 79.6671 62.2027 82.6806C62.2027 82.8167 62.21 82.9528 62.2139 83.0889C62.1654 83.0954 62.1164 83.1071 62.0678 83.1071C60.6582 83.1111 59.2481 83.1137 57.8379 83.115C57.8046 83.115 57.7708 83.0911 57.7369 83.0785C57.8561 83.027 57.9819 83.053 58.1045 83.0525C59.2702 83.0504 60.4358 83.0512 61.6014 83.0512H61.9573C62.0193 82.5337 62.0045 71.711 61.9456 71.4405C60.5255 71.4401 59.1054 71.4401 57.6567 71.4401V71.8601C57.6567 74.7874 57.6568 79.7152 57.6563 82.6425C57.6563 82.7786 57.6489 82.9151 57.6455 83.0512C57.58 83.0504 57.5146 83.0495 57.4495 83.0482C57.4474 82.9117 57.4435 82.7751 57.4435 82.6386C57.443 79.7087 57.443 74.7783 57.443 71.848V71.437H49.0895V71.8519C49.0895 74.7822 49.0895 79.7121 49.089 82.6425C49.089 82.7786 49.0817 82.9151 49.0773 83.0512C49.0153 83.0508 48.9533 83.0508 48.8909 83.0504C48.8866 82.9762 48.8779 82.9021 48.8779 82.8284C48.8775 79.7173 48.8775 74.6062 48.8784 71.4955C48.8784 71.4101 48.8593 71.3221 48.9035 71.235C48.9347 71.2237 48.9685 71.2116 49.0028 71.199Z" fill="#B68DF5"/>
<path fill-rule="evenodd" clip-rule="evenodd" d="M57.4435 82.6386C57.4431 79.7087 57.4431 74.7783 57.4431 71.8479V71.437H49.0895V71.8519C49.0895 74.7822 49.09 79.7121 49.0891 82.6425C49.0891 82.779 49.0817 82.9151 49.0774 83.0512C49.1095 83.0612 49.1415 83.0712 49.1736 83.0807C49.266 83.0291 49.3674 83.0521 49.4645 83.0521C52.0016 83.0508 54.5384 83.0508 57.0755 83.0521C57.1726 83.0521 57.2736 83.0296 57.3664 83.0811C57.3941 83.0699 57.4219 83.059 57.4496 83.0482C57.4474 82.9117 57.4435 82.7751 57.4435 82.6386Z" fill="#A072E7"/>
<path fill-rule="evenodd" clip-rule="evenodd" d="M61.9456 71.4405C60.5255 71.44 59.1055 71.44 57.6568 71.44V71.8601C57.6568 74.7874 57.6568 79.7152 57.6563 82.6424C57.6563 82.7786 57.649 82.9151 57.6455 83.0512C57.6759 83.0603 57.7066 83.0694 57.737 83.0785C57.8562 83.0269 57.9819 83.053 58.1041 83.0525C59.2702 83.0504 60.4358 83.0512 61.6014 83.0512H61.9573C62.0193 82.5336 62.0046 71.711 61.9456 71.4405Z" fill="#B68DF5"/>
<path fill-rule="evenodd" clip-rule="evenodd" d="M25.2625 39.5513C25.2661 39.5513 25.2697 39.5513 25.2737 39.5508C25.2731 39.548 25.2737 39.5456 25.2734 39.5438L25.2625 39.5513Z" fill="#064034"/>
<path fill-rule="evenodd" clip-rule="evenodd" d="M42.876 48.098C42.7412 47.069 42.5383 46.0585 42.2106 45.0754C41.5465 43.0792 40.4411 41.3739 38.8455 39.9915C38.6279 39.8025 38.3292 39.7067 38.1901 39.4267C37.9725 39.4081 37.8142 39.2689 37.6356 39.164C36.4436 38.464 35.1665 38.0348 33.7833 37.8922C33.2445 37.8363 32.7096 37.773 32.169 37.7895C30.5448 37.8389 28.9721 38.1618 27.4428 38.7041C27.0072 38.7041 26.467 39.0812 26.0228 39.1705C25.4186 39.2915 24.7859 39.3313 24.175 39.4124C22.9032 39.5802 21.6317 39.7518 20.3608 39.9265C17.8187 40.2755 15.2785 40.6374 12.7401 41.0124C12.6129 41.7636 8.98573 77.2482 8.93115 78.0996C11.5244 78.1035 16.5475 78.2439 19.1408 78.2491C19.3704 78.25 19.3713 76.7099 19.6006 76.7168C19.8299 76.7233 21.4398 78.1009 21.5909 78.1009C21.8092 77.8672 21.7439 77.6462 21.7442 77.445C21.746 76.1728 21.8745 74.9057 21.9232 73.6356C21.9551 72.8051 21.9533 71.968 22.0357 71.1414C22.1274 70.2259 22.0688 65.9084 22.1648 64.9998C22.2485 64.2083 22.2209 63.4185 22.2739 62.6304C22.3937 60.8432 22.4698 59.0547 22.5507 57.2657C22.5865 56.4768 22.5617 55.6787 22.6635 54.898C22.8039 53.8217 22.6742 52.7345 22.8471 51.6634C22.8523 51.6309 22.811 51.591 22.7913 51.5546C22.845 51.448 22.8989 51.3409 22.9526 51.2338C24.1257 50.5632 25.3536 50.0279 26.6876 49.7752C27.2417 49.6703 27.8126 49.6516 28.3618 49.783C29.1941 49.9815 29.7879 50.4939 30.1889 51.2581C30.5725 51.989 30.7377 52.7605 30.8192 53.5746C30.8833 54.2183 30.9674 54.8668 30.8851 55.5006C30.7888 56.2418 30.8608 56.9939 30.6922 57.7252C32.9359 57.7295 37.4345 57.7196 39.6786 57.7252C39.9066 57.7256 39.6036 56.1725 39.8317 56.179C39.8317 56.179 41.2929 57.8162 42.6449 57.7252C42.8292 56.8994 43.0815 56.0255 43.0815 55.2596C43.345 53.8464 43.0177 52.5061 43.0815 51.0778C43.1261 50.0799 43.0056 49.0885 42.876 48.098Z" fill="#16084E"/>
<path d="M29.563 63.076L29.8695 62.0032L42.1309 62.3096L42.2839 63.076H29.563Z" fill="#7252BF"/>
<path fill-rule="evenodd" clip-rule="evenodd" d="M12.2939 45.7031C12.5162 45.671 12.7372 45.6411 12.9563 45.6112H12.9564C14.5065 45.4005 15.9709 45.2015 17.2648 44.4078C18.3407 43.7481 19.1268 43.0887 19.7707 42.3059C20.3507 41.601 20.8234 40.7861 21.2871 39.7596C21.5247 39.7271 21.7623 39.695 21.9999 39.6629C21.4742 40.8815 20.9364 41.8542 20.2442 42.6956C19.5479 43.5422 18.7054 44.2435 17.5853 44.9306C16.1725 45.7971 14.5666 46.0134 13.0253 46.2211H13.025C12.7903 46.2527 12.557 46.2843 12.3261 46.3177C12.2935 46.3225 12.2608 46.3273 12.2282 46.332C12.2506 46.1175 12.2725 45.9077 12.2939 45.7031ZM9.33191 74.6192C9.35315 74.4072 9.37526 74.187 9.39819 73.9594C11.0867 73.4722 13.0076 73.2507 14.6407 73.1601C16.4773 73.0582 18.3145 72.9893 20.1582 72.9893C20.7958 72.9893 21.4565 72.9798 22.011 72.8098C22.0104 72.8306 22.0098 72.8519 22.0093 72.8727C22.0041 73.0651 21.999 73.2576 21.9924 73.4501C21.3768 73.6005 20.71 73.6022 20.1582 73.6022C18.3294 73.6022 16.5043 73.6707 14.6747 73.7722C12.9764 73.8667 11.0042 74.1029 9.33191 74.6192ZM43.1171 49.6507C42.1222 49.4548 41.1369 49.2025 40.1724 48.874L40.1156 48.9125L40.1143 48.9134C39.9609 49.0187 39.8066 49.1245 39.6509 49.2307C37.311 50.8285 35.4804 52.5473 33.8358 54.8603C33.2198 55.7268 32.6433 56.6749 32.1348 57.6775C31.8956 57.6775 31.6667 57.6775 31.4499 57.6771C32.0083 56.5396 32.6502 55.4702 33.336 54.5049C35.0275 52.1259 36.9131 50.3578 39.3055 48.7244C39.3579 48.6884 39.4108 48.6524 39.4633 48.6165C39.3323 48.5662 39.2019 48.5142 39.0718 48.4608C35.5051 46.9909 33.1466 44.9653 30.951 41.8308C30.14 40.6734 29.4434 39.4835 28.8408 38.242C29.0433 38.1887 29.2461 38.1393 29.4503 38.0938C30.026 39.2641 30.6875 40.3864 31.453 41.4792C33.5892 44.5288 35.8584 46.4733 39.3055 47.8939C39.5621 47.9996 39.8209 48.0989 40.0814 48.1925C40.9327 47.6095 41.7854 47.036 42.6818 46.5306C42.7269 46.7412 42.7681 46.9532 42.8054 47.1656C42.1309 47.5557 41.4737 47.9875 40.8105 48.4379C41.5479 48.6698 42.2986 48.8588 43.0581 49.0135C43.0811 49.2259 43.1014 49.4383 43.1171 49.6507ZM22.641 56.2587C21.3432 56.1105 20.0047 56.2188 18.8438 56.5322C18.4069 56.6501 17.8464 56.8105 17.3724 57.0923C16.8912 57.3784 16.4666 57.8106 16.3642 58.476C16.1635 59.7803 16.4825 60.7565 17.1637 61.4587C17.8297 62.1458 18.8074 62.5351 19.858 62.7587C20.6369 62.9248 21.4832 63.0041 22.315 63.0388C22.3206 62.8862 22.3278 62.734 22.3381 62.5814C22.3415 62.5299 22.345 62.4787 22.3483 62.4271C21.5448 62.3946 20.7336 62.3183 19.9857 62.1592C18.9845 61.946 18.1465 61.5918 17.6038 61.0322C17.0765 60.4882 16.794 59.7148 16.9702 58.5692C17.0354 58.1456 17.3001 57.8487 17.6858 57.6194C18.0787 57.3853 18.5627 57.2431 19.0035 57.1244C20.1188 56.8231 21.3997 56.7264 22.6272 56.8743C22.6312 56.7321 22.6341 56.5899 22.637 56.4477C22.6383 56.3849 22.6396 56.3216 22.641 56.2587ZM22.2669 64.4836C20.5893 64.0392 18.8015 63.9465 17.2036 63.9465H10.4147C10.3938 64.1519 10.3729 64.3561 10.3521 64.5598H17.2036C18.8403 64.5598 20.6023 64.6613 22.2162 65.1047C22.2201 65.0462 22.2244 64.9946 22.229 64.9508C22.2454 64.7952 22.2576 64.6396 22.2669 64.4836Z" fill="#341C93"/>
<path fill-rule="evenodd" clip-rule="evenodd" d="M28.0407 83.1708C28.0377 80.2925 30.3676 77.9569 33.2455 77.9535C36.1238 77.95 38.4594 80.2804 38.4629 83.1583L42.1414 83.1539C42.1353 78.2443 38.1508 74.2693 33.2412 74.275C28.332 74.281 24.3567 78.2656 24.3626 83.1752L28.0407 83.1708Z" fill="#7E40D6"/>
</svg>
