<svg width="79" height="70" viewBox="0 0 79 70" fill="none" xmlns="http://www.w3.org/2000/svg">
<path d="M70.8866 28.7516L20.4417 39.6134L26.3622 67.1096L76.807 56.2475L70.8866 28.7516Z" fill="#CDFFEC"/>
<path d="M59.6674 45.4233C60.9759 51.5281 57.1238 57.5603 50.9463 58.8684C44.8414 60.1765 38.8093 56.3245 37.5012 50.1469C36.193 44.0421 40.0447 38.0099 46.2223 36.7018C52.3271 35.3937 58.3593 39.318 59.6674 45.4233Z" fill="white"/>
<path d="M51.3099 46.9495C50.8011 46.6587 50.0745 46.5133 49.2022 46.3679L48.621 46.2952C48.4756 46.2952 48.4029 46.2952 48.3302 46.2225C47.894 46.1498 47.531 46.0045 47.2402 45.8591C46.9494 45.641 46.804 45.4233 46.6586 45.0598C46.5859 44.6963 46.5859 44.3328 46.804 44.0421C46.9494 43.7517 47.2402 43.5336 47.6033 43.4609C47.6033 43.4609 47.6033 43.4609 47.676 43.4609C48.0394 43.3882 48.4029 43.4609 48.6937 43.6063C48.9845 43.7517 49.2022 44.0421 49.3476 44.4782L51.7461 43.9694C51.528 43.3155 51.2373 42.7339 50.8011 42.2255C50.3653 41.7166 49.8564 41.4258 49.2022 41.2077C48.9118 41.135 48.621 41.0623 48.2575 41.0623L47.8213 38.8823L46.7313 39.1004L45.7867 39.3907L46.2224 41.5712C45.9321 41.7166 45.714 41.862 45.4232 42.0801C44.9143 42.5158 44.5508 43.0247 44.3332 43.679C44.1151 44.3328 44.1151 44.9144 44.1878 45.5683C44.3332 46.1498 44.5508 46.7314 44.987 47.1672C45.4232 47.6034 45.8594 47.9668 46.4405 48.1849C46.7313 48.2576 47.0948 48.403 47.6033 48.4757C47.6759 48.4757 47.8213 48.4757 48.1121 48.5484C48.2575 48.5484 48.4029 48.6207 48.5483 48.6207C49.1295 48.6934 49.5656 48.8388 49.8564 48.9842C50.2926 49.2023 50.5834 49.6385 50.7284 50.1469C50.8011 50.5831 50.7284 51.0193 50.5107 51.3828C50.2926 51.7458 49.8564 51.9639 49.4203 52.1093H49.3476C48.9118 52.182 48.4756 52.1093 48.1121 51.9639C47.7486 51.7458 47.4583 51.3828 47.3129 50.8739L45.0597 51.4555C45.2051 52.0366 45.4232 52.4728 45.6413 52.7636C45.9321 53.1993 46.2951 53.5628 46.7313 53.7809C47.4583 54.2898 48.1848 54.5079 49.0572 54.5079L49.493 56.6152L50.438 56.3972L51.528 56.1795L51.0919 54.0717C51.4553 53.9263 51.7461 53.7082 52.0369 53.4174C52.6181 52.909 52.9816 52.3274 53.1996 51.6008C53.4177 50.8739 53.4904 50.1469 53.2723 49.4204C52.9816 48.3303 52.3273 47.458 51.3099 46.9495Z" fill="#42AF71"/>
<path d="M18.3147 38.228L25.001 69.2611L78.9999 57.633L72.3135 26.5998L18.3147 38.228ZM33.4316 63.7379C32.7774 60.6127 29.6522 58.5776 26.4545 59.2319L23.7654 46.6587C26.8906 45.9318 28.853 42.8793 28.1987 39.7542L63.7378 32.1232C64.4643 35.2483 67.5168 37.138 70.6419 36.4837L73.3313 49.1296C70.2061 49.8566 68.2437 52.909 68.898 56.0341L33.4316 63.7379Z" fill="#4CD7AD"/>
<path d="M56.2721 16.9727L11.4674 42.5667L25.4179 66.9882L70.2228 41.3943L56.2721 16.9727Z" fill="#CDFFEC"/>
<path d="M50.6559 36.2657C53.781 41.7167 51.8913 48.6208 46.4407 51.7459C40.9897 54.871 34.0857 52.9813 30.9605 47.5307C27.8354 42.0801 29.7251 35.1756 35.1757 32.0505C40.6267 28.9254 47.5308 30.815 50.6559 36.2657Z" fill="white"/>
<path d="M43.1702 40.2632C42.5886 40.1905 41.8621 40.1905 40.9897 40.4086L40.4085 40.554C40.2632 40.554 40.1905 40.554 40.1178 40.6267C39.6816 40.6994 39.2454 40.6994 39.0277 40.6267C38.7369 40.554 38.4462 40.3359 38.2281 39.9724C38.01 39.6089 37.9373 39.3185 38.0827 38.955C38.1554 38.5916 38.3735 38.3735 38.6642 38.1554C38.6642 38.1554 38.6642 38.1554 38.7369 38.1554C39.1004 37.9377 39.3908 37.9377 39.7543 38.0104C40.1178 38.0827 40.4085 38.3008 40.6266 38.6643L42.734 37.4288C42.3705 36.8473 41.8621 36.4115 41.2805 36.048C40.6993 35.7572 40.1178 35.5391 39.4635 35.6118C39.1731 35.6118 38.8096 35.6845 38.5188 35.7572L37.4288 33.8676L36.4838 34.3764L35.6118 34.7399L36.7018 36.7019C36.4838 36.92 36.2657 37.138 36.1203 37.4288C35.8299 37.9377 35.6118 38.5916 35.6118 39.2458C35.6118 39.8997 35.7572 40.4813 36.048 41.0628C36.3384 41.5713 36.7745 42.0075 37.2834 42.371C37.7919 42.6613 38.3735 42.8794 38.955 42.8794C39.2454 42.8794 39.6816 42.8794 40.1178 42.8067C40.1905 42.8067 40.3358 42.734 40.6266 42.6613C40.7716 42.6613 40.917 42.589 41.0624 42.589C41.644 42.5163 42.0802 42.5163 42.4432 42.589C42.9521 42.6613 43.3156 42.9521 43.6064 43.461C43.824 43.8972 43.8967 44.3329 43.7518 44.7691C43.6064 45.2053 43.3156 45.5688 42.9521 45.7864C42.9521 45.7864 42.8794 45.7864 42.8794 45.8591C42.4432 46.0772 42.0802 46.1499 41.644 46.0772C41.2078 46.0045 40.8443 45.7137 40.6266 45.278L38.4461 46.5134C38.7369 47.0223 39.1004 47.3854 39.3908 47.6034C39.7543 47.8942 40.1905 48.1123 40.6993 48.2577C41.4986 48.4758 42.2978 48.4758 43.0975 48.2577L44.1875 50.1474L44.9872 49.6385L45.9318 49.1297L45.0599 47.095C45.3502 46.8042 45.5683 46.5861 45.7137 46.2226C46.0772 45.5688 46.2953 44.9145 46.2953 44.1875C46.2953 43.461 46.1499 42.734 45.7137 42.0802C45.2053 41.0628 44.3329 40.4086 43.1702 40.2632Z" fill="#42AF71"/>
<path d="M9.01196 41.862L24.7829 69.4065L72.7498 42.0074L56.9788 14.5354L9.01196 41.862ZM31.1786 61.6301C29.5797 58.7957 26.0184 57.8507 23.184 59.4496L16.7884 48.3303C19.5501 46.7314 20.4949 43.1701 18.896 40.4085L50.5105 22.3845C52.1094 25.0735 55.6707 26.0183 58.4323 24.4921L64.9007 35.6118C62.139 37.2107 61.194 40.772 62.7929 43.5336L31.1786 61.6301Z" fill="#4CD7AD"/>
<path d="M34.1342 2.5412L2.48755 43.2954L24.7015 60.5451L56.3479 19.7909L34.1342 2.5412Z" fill="#CDFFEC"/>
<path d="M36.3388 22.5299C41.2805 26.3818 42.1529 33.5041 38.3735 38.4461C34.5218 43.3882 27.3992 44.2602 22.4573 40.4812C17.5153 36.6291 16.6431 29.5068 20.4224 24.5648C24.2742 19.6228 31.3967 18.678 36.3388 22.5299Z" fill="white"/>
<path d="M30.8877 29.0708C30.3061 29.2161 29.6523 29.5068 28.9253 30.0156L28.4164 30.3063C28.3437 30.379 28.1987 30.4516 28.126 30.4516C27.6899 30.6697 27.3991 30.815 27.1083 30.8877C26.745 30.9604 26.4543 30.815 26.1636 30.597C25.8729 30.379 25.6549 30.0883 25.5822 29.7249C25.5095 29.3615 25.6549 29.0707 25.8729 28.78C26.091 28.4893 26.3817 28.2713 26.745 28.2713C27.1083 28.1986 27.4718 28.2713 27.7626 28.4893L29.2888 26.5271C28.7072 26.1637 28.126 25.873 27.4718 25.8003C26.8177 25.7276 26.1636 25.8003 25.5822 26.091C25.2915 26.2364 25.0008 26.3817 24.7828 26.5997L23.0385 25.2189L22.3844 26.091L21.803 26.8178L23.5472 28.1986C23.4019 28.4893 23.3292 28.78 23.3292 29.0708C23.2565 29.7249 23.3292 30.379 23.5472 30.9604C23.7653 31.5418 24.1286 32.0505 24.7101 32.4866C25.2188 32.85 25.7276 33.068 26.3817 33.2133C26.9629 33.286 27.6172 33.286 28.126 33.068C28.4164 32.9953 28.7799 32.7773 29.1434 32.5593C29.2161 32.4866 29.3615 32.4139 29.5796 32.2685C29.725 32.1959 29.8699 32.1232 30.0153 31.9778C30.5242 31.6871 30.9604 31.4691 31.2512 31.3964C31.7596 31.3238 32.2685 31.3964 32.7047 31.7598C33.0678 32.0505 33.2858 32.4139 33.3585 32.85C33.4312 33.286 33.2858 33.7221 32.9951 34.0855L32.9228 34.1581C32.632 34.5213 32.2685 34.7394 31.8323 34.8121C31.3966 34.8848 30.9604 34.7394 30.5969 34.5213L29.0707 36.4837C29.5796 36.8472 30.0153 37.0653 30.3788 37.138C30.8877 37.2834 31.3239 37.2834 31.905 37.2834C32.7774 37.2107 33.5039 36.8472 34.1582 36.3383L35.8298 37.6465L36.411 36.9199L37.0652 36.0475L35.3209 34.7394C35.4663 34.3762 35.539 34.0128 35.6117 33.6494C35.6844 32.9226 35.6117 32.1959 35.3936 31.5418C35.1028 30.8877 34.6667 30.3063 34.0855 29.7975C33.0677 29.0708 32.0504 28.78 30.8877 29.0708Z" fill="#42AF71"/>
<path d="M0 43.6063L25.0736 63.0836L58.9411 19.4774L33.8675 0L0 43.6063ZM28.0534 53.4174C25.5096 51.4555 21.8031 51.8912 19.8408 54.4352L9.66603 46.5134C11.5556 43.9694 11.1196 40.3358 8.57587 38.3734L30.8877 9.66603C33.4313 11.5556 37.0653 11.0469 39.0277 8.57587L49.275 16.4977C47.3853 19.0414 47.8215 22.6752 50.365 24.6375L28.0534 53.4174Z" fill="#44C194"/>
</svg>
