<svg width="72" height="67" viewBox="0 0 72 67" fill="none" xmlns="http://www.w3.org/2000/svg">
<path fill-rule="evenodd" clip-rule="evenodd" d="M21.0194 22.5149C21.0219 20.6779 21.0244 18.8407 21.0268 17.0037C21.0273 15.8858 21.0623 14.7666 21.0194 13.6504C20.9585 12.0661 20.3528 10.7818 19.0195 9.79972C18.4665 9.39231 17.8298 9.12205 17.3229 8.65853C17.7674 8.12048 18.3735 8.3956 18.894 8.39399C27.0731 8.37093 35.2521 8.37476 43.4316 8.37229C43.8157 12.5209 46.2597 14.157 49.3901 14.2681C48.7186 22.8589 49.2469 31.4644 49.0805 40.0609C49.0698 40.6212 49.0793 41.1816 49.0793 41.7024C49.5841 42.143 50.1197 41.9668 50.6089 41.968C55.5846 41.9816 60.5616 41.9281 65.5366 41.996C68.1753 42.0318 70.2118 43.1818 71.3004 45.7205C71.4638 46.1014 71.5906 46.4629 71.5882 46.8898C71.5733 49.8107 71.5804 52.7315 71.5804 55.805C70.5704 55.1137 69.8671 54.2256 68.7374 53.6677C67.9044 54.464 67.0283 55.3011 66.0998 56.1888C65.0235 55.5321 64.3532 54.4546 63.3132 53.6805C62.1896 54.2816 61.5782 55.5065 60.4838 56.1538C59.3898 55.5053 58.7731 54.2858 57.6634 53.685C56.6069 54.4467 55.9445 55.5337 54.6706 56.3074C53.9134 55.3781 53.1682 54.464 52.5164 53.6645C50.7941 54.0268 50.2461 55.5592 49.0336 56.1608C47.9944 55.3954 47.3158 54.3273 46.2812 53.6653C45.2716 54.3912 44.6314 55.4209 43.53 56.1303C43.53 53.2111 43.5329 50.4435 43.5263 47.6763C43.5254 47.2699 43.5814 46.8223 43.4365 46.4645C42.4764 44.0921 41.011 42.1566 37.762 42.2579C34.6671 42.3542 32.433 44.5393 32.4314 47.6738C32.4293 51.2653 32.5067 54.8589 32.4054 58.4475C32.3313 61.088 31.3786 63.2915 28.606 64.234C28.3581 64.318 28.1885 64.5226 28.1131 64.7861C27.2584 64.6894 26.409 64.8779 25.5361 64.5873C22.5317 63.5872 21.0289 61.622 21.0281 58.5039C21.0268 53.1671 21.0182 47.8298 21.0433 42.493L21.0194 22.5149Z" fill="#B5B1FD"/>
<path fill-rule="evenodd" clip-rule="evenodd" d="M28.113 64.7861C28.1884 64.5226 28.3576 64.318 28.6059 64.234C31.3785 63.2915 32.3312 61.0879 32.4053 58.4475C32.5066 54.8589 32.4292 51.2653 32.4313 47.6738C32.4329 44.5393 34.667 42.3542 37.7619 42.2579C41.0109 42.1566 42.4758 44.0921 43.4364 46.4645C43.5809 46.8223 43.5249 47.2699 43.5262 47.6762C43.5328 50.4435 43.5295 53.2111 43.5295 56.1303C44.6313 55.4209 45.2715 54.3911 46.2811 53.6653C47.3153 54.3277 47.9943 55.3954 49.0335 56.1608C50.246 55.5592 50.794 54.0268 52.5163 53.6644C53.1681 54.464 53.9133 55.3781 54.6705 56.3073C55.9444 55.5337 56.6068 54.4467 57.6633 53.685C58.773 54.2857 59.3893 55.5053 60.4833 56.1538C60.4841 56.9723 60.4479 57.7933 60.4915 58.6097C60.6904 62.3557 58.0298 64.8063 54.3658 64.7964C45.6149 64.7725 36.864 64.7869 28.113 64.7861Z" fill="#766CFD"/>
<path fill-rule="evenodd" clip-rule="evenodd" d="M17.3229 8.65848C17.8301 9.12201 18.4668 9.39223 19.0198 9.79964C20.3531 10.7817 20.9585 12.066 21.0198 13.6503C21.0626 14.7665 21.0272 15.8857 21.0268 17.0036C19.1309 16.9936 9.96635 17.0223 9.96635 17.0223C9.96635 17.0223 9.92378 13.224 9.97286 12.8287C10.0984 11.8182 10.5979 10.9075 11.3073 10.184C12.8287 8.6311 15.2463 8.00358 17.3229 8.65848Z" fill="#766CFD"/>
<path fill-rule="evenodd" clip-rule="evenodd" d="M54.3072 8.30992C54.3072 12.8995 50.5868 16.6198 45.9976 16.6198C41.4081 16.6198 37.6873 12.8995 37.6873 8.30992C37.6873 3.72031 41.4081 0 45.9976 0C50.5868 0 54.3072 3.72031 54.3072 8.30992Z" fill="#FEE526"/>
<path fill-rule="evenodd" clip-rule="evenodd" d="M45.9887 15.8535C44.1137 15.8535 42.3301 15.1669 40.9306 13.8983C39.4381 12.5449 38.5619 10.6914 38.4631 8.6788C38.3647 6.66642 39.0556 4.73594 40.4093 3.24321C41.7623 1.75048 43.6163 0.874116 45.6288 0.775754C47.6385 0.675991 49.5712 1.36827 51.0641 2.72143C52.557 4.07483 53.4332 5.9286 53.532 7.94094C53.6304 9.95331 52.9391 11.8838 51.5862 13.3768C50.2328 14.8692 48.3788 15.7459 46.3667 15.8443C46.2403 15.8505 46.1143 15.8535 45.9887 15.8535Z" fill="#FFB902"/>
<path fill-rule="evenodd" clip-rule="evenodd" d="M47.2053 10.2503C47.2053 9.92879 47.0126 9.73606 46.6268 9.54362V10.9184C47.0641 10.8027 47.2053 10.52 47.2053 10.2503ZM45.7276 7.02494V5.67615C45.355 5.76587 45.1623 6.0101 45.1623 6.31828C45.1623 6.56252 45.278 6.76798 45.7276 7.02494ZM46.6268 12.9614V14.092H45.7276V12.9742C44.2754 12.8714 43.1963 12.126 42.7339 10.8927L44.5072 9.86456C44.7769 10.4815 45.1495 10.8412 45.7276 10.9442V9.17121C45.6765 9.14518 45.6123 9.13242 45.5608 9.10669C44.443 8.657 43.1065 8.02734 43.1065 6.30556C43.1065 4.63501 44.3656 3.77412 45.7276 3.64562V2.52777H46.6268V3.67139C47.7323 3.81262 48.657 4.40407 49.1585 5.53464L47.4239 6.54976C47.2567 6.09982 46.9998 5.84311 46.6268 5.71465V7.44914C47.7446 7.92432 49.261 8.34853 49.261 10.2245C49.261 11.8306 48.156 12.7812 46.6268 12.9614Z" fill="white"/>
<path fill-rule="evenodd" clip-rule="evenodd" d="M6.41912 19.3309C5.1661 19.3309 4.15032 20.3466 4.15032 21.5996C4.15032 22.8526 5.1661 23.8684 6.41912 23.8684C7.67209 23.8684 8.68787 22.8526 8.68787 21.5996C8.68787 20.3466 7.67209 19.3309 6.41912 19.3309ZM3.96924 21.5996C3.96924 20.2466 5.06613 19.1498 6.41912 19.1498C7.7721 19.1498 8.86895 20.2466 8.86895 21.5996C8.86895 22.9526 7.7721 24.0495 6.41912 24.0495C5.06613 24.0495 3.96924 22.9526 3.96924 21.5996Z" fill="#BB7CFF"/>
<path fill-rule="evenodd" clip-rule="evenodd" d="M63.2498 14.8543H65.7057V12.3985H63.2498V14.8543Z" fill="#BB7CFF"/>
<path fill-rule="evenodd" clip-rule="evenodd" d="M64.8726 64.4197C64.8726 64.351 64.9286 64.295 64.9973 64.295H67.4529C67.5216 64.295 67.5776 64.351 67.5776 64.4197V66.8753C67.5776 66.9444 67.5216 67 67.4529 67H64.9973C64.9286 67 64.8726 66.9444 64.8726 66.8753V64.4197ZM65.1221 64.5445V66.7509H67.3281V64.5445H65.1221Z" fill="#BB7CFF"/>
<path fill-rule="evenodd" clip-rule="evenodd" d="M0 25.7149C0 25.646 0.0557892 25.5902 0.124672 25.5902H2.58019C2.64907 25.5902 2.7049 25.646 2.7049 25.7149V28.1707C2.7049 28.2396 2.64907 28.2954 2.58019 28.2954H0.124672C0.0557892 28.2954 0 28.2396 0 28.1707V25.7149ZM0.249343 25.8396V28.046H2.45552V25.8396H0.249343Z" fill="#BB7CFF"/>
<path fill-rule="evenodd" clip-rule="evenodd" d="M23.9983 56.6483H3.94518C2.96638 56.6483 2.17297 55.8549 2.17297 54.8766V38.171C2.17297 37.1924 2.96638 36.399 3.94518 36.399H23.9983C24.9766 36.399 25.77 37.1924 25.77 38.171V54.8766C25.77 55.8549 24.9766 56.6483 23.9983 56.6483Z" fill="#5035B5"/>
<path fill-rule="evenodd" clip-rule="evenodd" d="M7.20496 41.4958C7.20496 41.3961 7.28565 41.3154 7.38521 41.3154H9.78815C9.88771 41.3154 9.96841 41.3961 9.96841 41.4958V43.8986C9.96841 43.9983 9.88771 44.079 9.78815 44.079H7.38521C7.28565 44.079 7.20496 43.9983 7.20496 43.8986V41.4958ZM7.56547 41.6761V43.7183H9.6079V41.6761H7.56547Z" fill="white"/>
<path fill-rule="evenodd" clip-rule="evenodd" d="M11.3479 42.5617C11.3479 42.4625 11.4286 42.3818 11.5282 42.3818H16.1863C16.2859 42.3818 16.3666 42.4625 16.3666 42.5617C16.3666 42.6614 16.2859 42.7421 16.1863 42.7421H11.5282C11.4286 42.7421 11.3479 42.6614 11.3479 42.5617Z" fill="white"/>
<path fill-rule="evenodd" clip-rule="evenodd" d="M7.20496 45.5027C7.20496 45.4031 7.28565 45.3224 7.38521 45.3224H9.78815C9.88771 45.3224 9.96841 45.4031 9.96841 45.5027V47.9056C9.96841 48.0052 9.88771 48.0859 9.78815 48.0859H7.38521C7.28565 48.0859 7.20496 48.0052 7.20496 47.9056V45.5027ZM7.56547 45.6831V47.7252H9.6079V45.6831H7.56547Z" fill="white"/>
<path fill-rule="evenodd" clip-rule="evenodd" d="M11.3479 46.5683C11.3479 46.4686 11.4286 46.3879 11.5282 46.3879H20.9206C21.0202 46.3879 21.1009 46.4686 21.1009 46.5683C21.1009 46.6679 21.0202 46.7486 20.9206 46.7486H11.5282C11.4286 46.7486 11.3479 46.6679 11.3479 46.5683Z" fill="white"/>
<path fill-rule="evenodd" clip-rule="evenodd" d="M7.20496 49.5093C7.20496 49.41 7.28565 49.3293 7.38521 49.3293H9.78815C9.88771 49.3293 9.96841 49.41 9.96841 49.5093V51.9125C9.96841 52.0118 9.88771 52.0925 9.78815 52.0925H7.38521C7.28565 52.0925 7.20496 52.0118 7.20496 51.9125V49.5093ZM7.56547 49.6896V51.7322H9.6079V49.6896H7.56547Z" fill="white"/>
<path fill-rule="evenodd" clip-rule="evenodd" d="M11.3479 50.5753C11.3479 50.4756 11.4286 50.3949 11.5282 50.3949H20.9206C21.0202 50.3949 21.1009 50.4756 21.1009 50.5753C21.1009 50.6749 21.0202 50.7556 20.9206 50.7556H11.5282C11.4286 50.7556 11.3479 50.6749 11.3479 50.5753Z" fill="white"/>
<path fill-rule="evenodd" clip-rule="evenodd" d="M45.4337 23.2121H27.1257V22.2313H45.4337V23.2121Z" fill="white"/>
<path fill-rule="evenodd" clip-rule="evenodd" d="M45.4337 28.1161H27.1257V27.1353H45.4337V28.1161Z" fill="white"/>
<path fill-rule="evenodd" clip-rule="evenodd" d="M45.4337 33.0203H27.1257V32.0391H45.4337V33.0203Z" fill="white"/>
</svg>
