<svg width="382" height="354" viewBox="0 0 382 354" fill="none" xmlns="http://www.w3.org/2000/svg">
<path d="M245.375 289C245.358 288.173 245.425 288.295 245.175 288.295C245.227 288.533 245.293 288.77 245.375 289Z" fill="#FFE497"/>
<path d="M222.945 256.703C223.063 256.8 223.153 256.927 223.203 257.072C223.252 257.217 223.258 257.372 223.222 257.52C222.715 259.502 222.188 262.6 224.307 263.86C226.158 264.967 229.605 263.767 231.237 262.25C231.348 262.148 231.487 262.083 231.637 262.062C232.632 258.865 234.235 255.89 236.358 253.3C236.395 251.9 236.542 250.752 236.542 250.752C235.178 251.367 233.677 251.613 232.188 251.47C228.61 250.567 226.132 245.6 228.65 240.23C229.253 238.655 230.17 237.22 231.347 236.012C232.523 234.803 233.933 233.848 235.492 233.203C236.16 232.982 236.87 232.907 237.57 232.985C238.27 233.062 238.945 233.29 239.548 233.653C242.932 235.72 240.865 241.358 240.865 241.358C242.838 240.28 243.948 240.11 244.465 240.467L244.25 228.937C244.158 228.87 244.083 228.783 244.03 228.682C243.978 228.582 243.95 228.47 243.948 228.357C242.968 203.062 243.272 202.458 241.855 200.118C241.202 199.055 240.308 198.162 239.245 197.508C238.183 196.857 236.982 196.465 235.738 196.363C235.518 196.412 200.727 203.11 195.175 205.813L193.235 206.9C190.297 208.735 187.893 211.312 186.265 214.37C184.638 217.427 183.843 220.86 183.96 224.322V323.908C205.347 321.017 226.163 314.862 245.685 305.66L245.435 292.272C244.488 291.132 243.853 289.765 243.59 288.307L231.25 288.38C230.495 288.38 230.427 287.402 230.472 287.602C230.117 284.377 229.817 281.142 229.708 277.898C220.308 280.737 206.797 270.343 210.835 256.573C211.145 255.52 211.948 253.078 212.945 252.573C213.972 252.037 214.832 252.788 222.945 256.703Z" fill="#FFE497"/>
<path d="M241.6 245.49C244.43 253.053 243.212 251.66 244.678 252.16L244.505 242.828C244.297 243.488 243.92 244.082 243.41 244.548C242.9 245.017 242.275 245.342 241.6 245.49Z" fill="#FFE497"/>
<path d="M244.465 240.465C243.938 240.11 242.828 240.28 240.865 241.358C244.277 232.058 233.987 228.842 228.65 240.23C226.137 245.598 228.607 250.565 232.188 251.47C233.677 251.613 235.178 251.367 236.542 250.752C236.542 250.752 236.395 251.902 236.358 253.3C236.32 254.805 236.358 258.018 237.858 258.27C240.112 258.645 244.435 256.39 244.435 254.698C243.752 251.558 242.81 248.482 241.617 245.498C243.977 245.253 245.625 241.248 244.465 240.465Z" fill="#CC6666"/>
<path d="M188.2 5.17969C185.357 3.33852 182.022 2.40135 178.635 2.49168C175.248 2.58202 171.968 3.69552 169.227 5.68568C145.528 22.9197 128.38 52.9457 118.358 80.9557C125.936 83.5997 171.773 97.7197 240.61 79.7057C230.218 50.9357 214.093 20.9477 188.2 5.17969Z" fill="#F76559"/>
<path d="M99.668 220.4C99.302 238.697 98.566 287.627 107.098 303.837C116.244 321.217 156.968 330.697 182.403 325.037V235.343C175.718 236.017 134.064 239.262 99.668 220.4Z" fill="#FF8684"/>
<path d="M198.318 102.146C198.375 102.249 198.408 102.363 198.417 102.48C198.427 102.596 198.41 102.714 198.37 102.824C198.33 102.934 198.267 103.035 198.185 103.118C198.102 103.202 198.003 103.268 197.895 103.31C172.708 112.726 173.265 150.047 198.44 158.863C198.568 158.905 198.683 158.982 198.772 159.082C198.86 159.183 198.918 159.307 198.942 159.44C217.61 165.59 236.612 151.04 236.612 130.684C236.612 110 217.057 95.472 198.318 102.146ZM221.548 111.486C221.313 111.934 220.943 112.296 220.492 112.521C220.038 112.746 219.527 112.823 219.028 112.74C218.53 112.657 218.07 112.418 217.715 112.058C217.36 111.699 217.127 111.236 217.05 110.736C216.973 110.237 217.057 109.726 217.287 109.276C217.518 108.826 217.885 108.461 218.337 108.232C218.787 108.003 219.298 107.923 219.797 108.002C220.297 108.081 220.758 108.315 221.117 108.672C221.537 108.996 221.815 109.469 221.895 109.993C221.977 110.517 221.852 111.051 221.548 111.486ZM227.18 147.762C226.22 149.008 224.98 146.838 225.275 146.468C230.968 139.084 231.788 123.868 224.705 114.212C224.105 113.402 226.287 112.192 226.875 112.992C233.908 122.586 234.722 137.958 227.18 147.762Z" fill="#9CF0F0"/>
<path d="M373.358 238.655C369.1 235.197 363.665 233.528 358.2 234C356.03 228.702 352.477 224.083 347.912 220.628C343.347 217.172 337.938 215.005 332.25 214.353C331.678 210.572 330.045 207.028 327.538 204.138C325.032 201.248 321.757 199.128 318.092 198.028C318.58 168.862 278.81 160.45 267.04 186.56C266.64 187.465 267.972 188.258 268.385 187.345C279.818 161.97 317.585 171.132 316.535 198.602C316.535 198.772 316.592 198.937 316.695 199.072C316.797 199.207 316.942 199.305 317.105 199.352C320.68 200.328 323.887 202.34 326.322 205.132C328.758 207.923 330.317 211.373 330.8 215.048C330.808 215.252 330.893 215.445 331.038 215.59C331.183 215.733 331.377 215.818 331.58 215.825C337.167 216.375 342.493 218.458 346.972 221.845C351.448 225.23 354.903 229.788 356.955 235.013C357.003 235.177 357.102 235.32 357.237 235.423C357.372 235.525 357.537 235.583 357.707 235.585C378.217 233.333 387.538 259.615 371.095 270.903C367.122 273.617 362.295 274.783 357.522 274.185C356.522 274.063 356.54 275.62 357.522 275.74C378.418 278.282 389.462 251.77 373.358 238.655Z" fill="#AC47F5"/>
<path d="M340.365 279.715C341.742 277.563 342.485 275.067 342.507 272.512C342.53 269.955 341.832 267.445 340.492 265.27C339.152 263.093 337.227 261.338 334.935 260.208C332.643 259.077 330.078 258.615 327.537 258.875C330.905 241.463 316.35 231.893 306.207 237.118C305.317 237.575 306.105 238.918 306.992 238.462C316.252 233.69 329.708 243.122 325.82 259.55C325.79 259.682 325.793 259.818 325.832 259.948C325.868 260.078 325.938 260.197 326.033 260.292C326.13 260.388 326.248 260.458 326.377 260.495C326.507 260.533 326.645 260.538 326.777 260.508C329.227 260.09 331.748 260.435 333.997 261.498C336.243 262.562 338.11 264.29 339.343 266.45C340.575 268.61 341.112 271.097 340.883 273.573C340.653 276.05 339.668 278.395 338.06 280.292C337.587 280.843 338.025 281.842 338.817 281.592C340.387 281.08 342.073 281.035 343.668 281.462C345.265 281.89 346.703 282.77 347.808 283.997C348.915 285.225 349.642 286.747 349.9 288.378C350.158 290.01 349.938 291.682 349.267 293.192C348.867 294.098 350.198 294.892 350.608 293.98C351.373 292.36 351.69 290.565 351.528 288.78C351.365 286.997 350.728 285.288 349.683 283.833C348.638 282.378 347.223 281.23 345.585 280.505C343.947 279.782 342.143 279.508 340.365 279.715Z" fill="#AC47F5"/>
<path d="M329.848 265.588C329.642 265.588 329.443 265.67 329.298 265.815C329.152 265.962 329.07 266.16 329.07 266.367C329.07 266.572 329.152 266.77 329.298 266.917C329.443 267.062 329.642 267.143 329.848 267.143C333.048 266.888 333.99 270.5 334.388 273.662C334.398 273.862 334.485 274.05 334.63 274.188C334.775 274.325 334.967 274.402 335.167 274.402C335.367 274.402 335.56 274.325 335.705 274.188C335.85 274.05 335.937 273.862 335.947 273.662C335.86 271.678 335.302 269.743 334.317 268.02C333.847 267.262 333.187 266.64 332.403 266.213C331.62 265.787 330.74 265.572 329.848 265.588ZM372.522 257.462C373.313 254.39 372.908 251.132 371.388 248.347C369.868 245.562 367.348 243.458 364.337 242.462C364.14 242.417 363.935 242.448 363.762 242.552C363.588 242.655 363.463 242.82 363.408 243.013C363.355 243.207 363.378 243.415 363.473 243.592C363.568 243.768 363.728 243.902 363.92 243.963C366.538 244.843 368.727 246.68 370.045 249.108C371.362 251.535 371.712 254.372 371.022 257.047C370.967 257.245 370.993 257.457 371.095 257.637C371.197 257.817 371.365 257.948 371.565 258.003C371.763 258.058 371.975 258.033 372.155 257.932C372.335 257.83 372.467 257.66 372.522 257.462ZM293.737 179.983C292.737 180.032 292.737 181.583 293.737 181.54C296.183 181.483 298.565 182.337 300.42 183.933C302.277 185.53 303.475 187.757 303.785 190.187C303.875 191.173 305.43 191.187 305.338 190.187C305.023 187.345 303.66 184.725 301.513 182.837C299.367 180.95 296.593 179.933 293.737 179.983ZM272.302 160.612C276.167 154.747 281.562 150.048 287.902 147.028C288.807 146.598 288.018 145.257 287.118 145.687C280.54 148.837 274.948 153.727 270.948 159.827C270.4 160.667 271.755 161.447 272.302 160.612ZM283.935 160.107C287.09 157.362 290.777 155.293 294.765 154.03C295.717 153.73 295.31 152.23 294.352 152.53C290.11 153.873 286.188 156.077 282.835 159C282.078 159.663 283.18 160.762 283.935 160.107ZM93.5022 204.922C88.5963 203.437 83.3893 203.25 78.3898 204.38C73.3902 205.51 68.7692 207.917 64.9783 211.367C61.1875 214.817 58.3563 219.19 56.7617 224.062C55.167 228.933 54.8632 234.135 55.8802 239.158C52.2475 241.007 49.18 243.8 47.0002 247.243C11.9602 236.457 -14.1558 279.348 10.8482 305.63C8.90083 309.115 7.86866 313.037 7.84816 317.03C7.84816 317.237 7.93016 317.433 8.076 317.58C8.222 317.727 8.41983 317.808 8.62616 317.808C8.8325 317.808 9.0305 317.727 9.17633 317.58C9.32216 317.433 9.40416 317.237 9.40416 317.03C9.419 313.115 10.4773 309.275 12.4702 305.907C12.5532 305.757 12.5862 305.585 12.5642 305.415C12.5422 305.245 12.4665 305.087 12.3482 304.963C-12.3978 279.792 13.1482 237.828 47.1322 248.898C47.2975 248.942 47.4727 248.93 47.631 248.865C47.7895 248.802 47.9225 248.687 48.0102 248.54C50.166 244.935 53.3417 242.05 57.1362 240.248C57.2817 240.158 57.3948 240.025 57.4593 239.868C57.5237 239.71 57.536 239.535 57.4942 239.37C56.4372 234.582 56.6517 229.6 58.1163 224.918C59.581 220.238 62.245 216.023 65.8433 212.692C69.4418 209.36 73.8495 207.028 78.6283 205.927C83.4072 204.827 88.3908 204.997 93.0842 206.418C93.2782 206.46 93.4807 206.427 93.6507 206.323C93.8207 206.222 93.945 206.058 93.9983 205.867C94.0518 205.675 94.0302 205.472 93.9378 205.297C93.8457 205.12 93.6898 204.987 93.5022 204.922ZM85.8662 255.44C70.0502 252.128 60.0502 261.168 60.4922 272.267C57.8103 272.062 55.1173 272.473 52.6187 273.468C50.1202 274.463 47.8822 276.018 46.0758 278.01C44.2695 280.003 42.9425 282.382 42.1963 284.967C41.45 287.55 41.3043 290.272 41.7702 292.92C41.9342 293.903 43.4342 293.488 43.2702 292.507C42.8677 290.08 43.0257 287.595 43.7322 285.242C44.4385 282.887 45.6743 280.725 47.3453 278.922C49.0162 277.118 51.0775 275.722 53.3717 274.838C55.6657 273.955 58.1315 273.608 60.5802 273.827C60.7802 273.802 60.5122 274.47 61.3222 276.898C61.6362 277.843 63.1402 277.438 62.8222 276.483C61.871 273.643 61.7832 270.587 62.57 267.697C63.3567 264.807 64.9827 262.215 67.2422 260.25C74.2242 254.222 88.4942 255.743 91.0082 260.423C91.4822 261.307 92.8262 260.522 92.3522 259.64C91.6442 258.508 90.6965 257.545 89.5758 256.82C88.455 256.093 87.1888 255.623 85.8662 255.44Z" fill="#AC47F5"/>
<path d="M20.3345 259.963C17.6477 261.163 15.3857 263.147 13.8449 265.653C12.3039 268.162 11.5559 271.075 11.6985 274.013C11.7625 275.013 13.3165 275.013 13.2545 274.013C13.1165 271.347 13.7957 268.702 15.2014 266.432C16.6069 264.162 18.6719 262.373 21.1205 261.308C22.0385 260.918 21.2465 259.577 20.3345 259.963ZM67.8585 249.17C68.0585 250.15 69.5625 249.737 69.3585 248.757C69.1407 247.75 69.2017 246.703 69.5345 245.728C69.8675 244.753 70.46 243.888 71.248 243.225C72.0362 242.563 72.9902 242.127 74.0072 241.967C75.0244 241.805 76.0662 241.925 77.0205 242.312C77.7185 242.572 78.1565 241.712 77.8985 241.17C72.5705 229.807 81.9545 219.587 90.9265 222.402C91.8825 222.703 92.2945 221.202 91.3405 220.902C81.9405 217.952 71.3105 227.808 75.9405 240.452C74.7814 240.275 73.5965 240.385 72.4895 240.772C71.3827 241.158 70.387 241.81 69.59 242.67C68.7929 243.53 68.2182 244.572 67.9164 245.705C67.6147 246.838 67.5947 248.027 67.8585 249.17ZM63.5585 189.382C71.2719 187.547 79.322 187.673 86.9745 189.748C87.1715 189.797 87.38 189.767 87.5554 189.665C87.7307 189.562 87.8589 189.395 87.9127 189.198C87.9665 189.003 87.9415 188.793 87.8432 188.617C87.7449 188.438 87.581 188.307 87.3865 188.248C79.463 186.103 71.1289 185.978 63.1445 187.882C62.1705 188.113 62.5845 189.613 63.5585 189.382ZM54.9505 201.11C60.0399 198.207 65.8465 196.802 71.7005 197.057C72.7005 197.1 72.7005 195.543 71.7005 195.5C65.5702 195.245 59.4924 196.723 54.1645 199.767C53.9862 199.87 53.8567 200.042 53.8044 200.24C53.752 200.44 53.7812 200.653 53.8855 200.832C53.9897 201.008 54.1605 201.138 54.3602 201.192C54.5599 201.243 54.7722 201.215 54.9505 201.11ZM140.921 327.538C129.225 322.07 115.889 329.157 113.647 339.8C107.469 337.588 99.5125 341.648 97.2645 352.152C97.0645 353.128 98.5545 353.552 98.7645 352.567C100.841 342.87 107.877 339.262 113.393 341.347C113.049 343.802 113.631 346.297 115.027 348.347C115.609 349.147 116.959 348.373 116.371 347.562C109.869 338.602 124.609 321.603 140.137 328.872C141.039 329.302 141.829 327.962 140.921 327.538ZM154.905 329.733C153.231 329.313 151.463 329.493 149.909 330.245C148.356 330.995 147.115 332.268 146.404 333.84C145.693 335.412 145.557 337.183 146.02 338.847C146.483 340.508 147.515 341.955 148.937 342.933C149.757 343.512 150.536 342.167 149.721 341.59C148.615 340.808 147.818 339.663 147.467 338.355C147.117 337.047 147.235 335.658 147.802 334.428C148.369 333.198 149.348 332.205 150.57 331.622C151.792 331.037 153.18 330.9 154.493 331.232C155.465 331.472 155.879 329.972 154.905 329.733Z" fill="#AC47F5"/>
<path d="M125.578 332.722C124.256 333.63 123.153 334.822 122.352 336.212C121.55 337.602 121.07 339.152 120.946 340.752C120.946 340.958 121.028 341.157 121.174 341.302C121.32 341.448 121.518 341.53 121.724 341.53C121.931 341.53 122.129 341.448 122.275 341.302C122.421 341.157 122.502 340.958 122.502 340.752C122.615 339.422 123.019 338.133 123.686 336.977C124.353 335.82 125.267 334.827 126.362 334.063C126.536 333.957 126.662 333.785 126.714 333.588C126.767 333.39 126.741 333.18 126.642 333C126.537 332.823 126.367 332.695 126.168 332.642C125.968 332.59 125.757 332.618 125.578 332.722Z" fill="#AC47F5"/>
<path d="M123.2 278.935L88.0883 279.772L96.5343 283.67C97.8683 283.802 93.7883 283.953 132.298 281.76L123.2 278.935ZM85.1823 280.14C83.7823 284.09 67.7983 329.578 67.7263 329.778L79.2223 338.398C80.1163 335.773 76.3723 347.515 95.9863 285.138C95.8583 285.088 97.0163 285.6 85.1823 280.14Z" fill="#F76559"/>
<path d="M300.26 196.818C297.762 195.282 298.367 195.692 263.995 194.418C261.668 134.658 240.762 32.5379 187.707 3.07587C184.833 1.50687 181.587 0.749703 178.315 0.88537C175.043 1.02104 171.87 2.04437 169.137 3.84587C165.438 6.42587 161.963 9.3112 158.747 12.4719C126.4 42.9999 110.146 90.8679 103.476 135.022C98.1385 170.362 96.8225 241.262 98.9705 271.068C99.0425 272.068 100.598 272.068 100.526 271.068C98.4665 242.885 100.026 183.11 102.29 157.93C107.184 103.462 125.752 37.3019 169.222 5.68587C171.965 3.69487 175.245 2.58087 178.633 2.49054C182.02 2.4002 185.357 3.3377 188.2 5.17987C240.712 37.1559 259.048 133.198 262.445 194.365L253.917 194.05C252.917 194.013 252.917 195.57 253.917 195.605C298.495 197.24 297.437 196.938 299.407 198.118C300.407 198.725 301.232 199.583 301.8 200.607C302.368 201.63 302.66 202.783 302.647 203.953C302.647 204.438 301.465 298.24 301.462 298.353C301.452 299.318 301.232 300.267 300.82 301.138C300.408 302.01 299.813 302.782 299.075 303.403C298.338 304.023 297.475 304.477 296.547 304.733C295.617 304.99 294.643 305.042 293.692 304.888L261.262 301.973C260.262 301.883 260.262 303.442 261.262 303.53L293.862 306.46C295.007 306.59 296.167 306.478 297.265 306.132C298.363 305.787 299.377 305.213 300.242 304.452C301.105 303.69 301.798 302.755 302.278 301.708C302.76 300.662 303.015 299.525 303.028 298.373C303.028 298.173 304.212 204.13 304.215 203.928C304.218 202.503 303.857 201.102 303.165 199.857C302.472 198.613 301.472 197.567 300.26 196.818Z" fill="#1D1D1B"/>
<path d="M243.108 199.187C242.305 197.923 241.218 196.868 239.933 196.103C238.647 195.34 237.2 194.888 235.708 194.787C234.518 194.75 233.33 194.892 232.18 195.202C198.042 203.027 195.948 202.812 191.072 206.46C188.593 208.312 186.54 210.675 185.052 213.388C183.565 216.102 182.677 219.103 182.448 222.19C182.347 223.653 182.398 326.177 182.398 326.177C182.398 326.382 182.48 326.58 182.627 326.727C182.772 326.872 182.97 326.953 183.177 326.953C183.382 326.953 183.58 326.872 183.727 326.727C183.872 326.58 183.953 326.382 183.953 326.177V224.317C183.842 220.855 184.638 217.423 186.265 214.367C187.893 211.31 190.293 208.733 193.228 206.893C197.192 204.383 196.628 204.953 232.25 196.782C233.007 196.577 233.777 196.43 234.557 196.343C236 196.248 237.442 196.55 238.727 197.213C240.012 197.878 241.09 198.88 241.848 200.112C244.062 203.77 243.218 228.178 244.248 228.93C244.358 229.025 244.493 229.085 244.638 229.105C244.782 229.125 244.928 229.103 245.062 229.042C245.193 228.982 245.305 228.883 245.383 228.76C245.462 228.638 245.503 228.495 245.502 228.35C244.473 202.368 244.85 201.938 243.108 199.187ZM249.637 197.583C249.573 196.583 248.02 196.583 248.082 197.583L249.918 227.437C249.978 228.437 251.537 228.437 251.473 227.437C251.353 225.497 249.8 200.2 249.637 197.583Z" fill="#1D1D1B"/>
<path d="M311.55 294.45L301.92 281.952C301.52 281.537 300.98 281.283 300.405 281.242C299.83 281.198 299.26 281.37 298.802 281.722L294.055 285.383C291.475 282.557 288.21 280.44 284.577 279.24C285.497 279.857 286.475 280.712 286.497 281.58C288.837 282.828 290.968 284.435 292.812 286.342L283.49 293.53C281.95 291.343 278.44 286.177 278.422 283.502C277.862 283.177 277.485 282.932 277.485 282.932C277.485 282.932 278.612 285.732 277.512 286.332C278.762 289.228 280.35 291.967 282.245 294.488L278.352 297.488C277.9 297.837 277.59 298.337 277.482 298.898C277.373 299.458 277.473 300.038 277.765 300.53L287.118 312.352C287.277 312.62 287.487 312.853 287.737 313.038C287.987 313.225 288.27 313.358 288.572 313.433C288.875 313.508 289.188 313.522 289.495 313.473C289.803 313.425 290.098 313.315 290.362 313.152L311.092 298.058C311.388 297.875 311.64 297.627 311.828 297.333C312.017 297.04 312.137 296.708 312.18 296.363C312.225 296.017 312.19 295.667 312.082 295.335C311.972 295.005 311.792 294.702 311.55 294.45Z" fill="#D1A9FF"/>
<path d="M286.822 278.952C287.342 277.985 285.967 275.365 278.022 275.152C277.332 278.235 275.51 280.947 272.918 282.752C276.655 288.503 279.062 286.882 277.475 282.952C281.967 285.853 283.202 285.232 283.445 284.865C284.365 283.488 282.527 281.42 282.527 281.42C282.527 281.42 285.202 283.332 285.97 282.645C287.605 281.19 285.005 279.34 283.042 278.385C283.475 278.568 286.327 279.872 286.822 278.952ZM223.267 250.378C224.852 251.533 223.667 254.412 222.448 256.053C222.182 256.418 221.895 256.185 222.867 256.642C222.895 256.66 222.92 256.68 222.945 256.703C223.778 255.542 227.622 250.058 226.3 249.33C225.302 248.778 224 249.712 223.267 250.378ZM222.075 251.618C221.155 251.963 220.312 252.482 219.588 253.145C218.788 253.785 217.825 252.658 218.535 252.015C219.61 251.035 221.555 249.638 222.905 250.17C224.372 244.57 221.427 244.845 218.647 249.37C219.458 245.37 217.247 242.608 213.447 252.33L213.625 252.415C214.727 252.668 215.777 253.112 216.727 253.725L221.025 255.758C221.005 255.673 221.002 255.585 221.017 255.5C221.032 255.415 221.063 255.333 221.11 255.26C222.055 253.963 223.102 251.458 222.075 251.618Z" fill="#CC6666"/>
<path d="M255.54 287.6H255.122C253.737 288.463 252.695 288.258 245.172 288.293C245.462 289.723 246.205 291.02 247.29 291.993C248.375 292.965 249.747 293.562 251.198 293.693C251.397 293.748 251.567 293.88 251.668 294.06C251.77 294.24 251.797 294.452 251.742 294.65C251.687 294.85 251.555 295.018 251.375 295.12C251.195 295.222 250.983 295.248 250.785 295.193C249.003 294.97 247.34 294.18 246.043 292.938C244.747 291.697 243.885 290.07 243.585 288.3L231.245 288.373C231.045 288.367 230.855 288.285 230.712 288.145C230.568 288.007 230.483 287.817 230.472 287.618C227.527 287.773 216.872 289.018 212.672 298.818C207.772 310.25 226.348 325.558 226.348 325.558C226.348 325.558 235.532 325.358 238.187 323.515C238.187 323.515 225.735 307.392 229.408 301.268C232.322 296.413 236.197 295.612 240.42 297.718C238.872 296.032 237.292 294.365 235.597 292.835C234.85 292.163 235.955 291.068 236.695 291.735C249.885 303.632 267.037 330.535 266.917 331.548C269.05 331.715 275.082 331.935 277.582 329.435L255.54 287.6Z" fill="#AC47F5"/>
<path d="M229.708 277.898C229.88 283.053 230.527 287.825 230.478 287.623C230.488 287.823 230.575 288.012 230.717 288.152C230.86 288.292 231.05 288.373 231.25 288.38L243.59 288.305C243.887 290.078 244.747 291.707 246.045 292.948C247.343 294.192 249.007 294.982 250.79 295.2C250.99 295.255 251.202 295.228 251.382 295.127C251.56 295.025 251.692 294.855 251.747 294.657C251.802 294.458 251.775 294.245 251.673 294.067C251.572 293.887 251.403 293.755 251.205 293.7C249.753 293.567 248.383 292.97 247.297 291.997C246.212 291.025 245.468 289.728 245.178 288.3L252.625 288.253C253.402 288.315 254.178 288.143 254.857 287.76C255.537 287.378 256.087 286.803 256.438 286.108C257.14 284.543 256.875 284.488 253.12 270.762C259.072 275.068 265.237 279.073 271.59 282.762C271.79 282.895 272.025 282.965 272.267 282.96C272.507 282.957 272.74 282.878 272.935 282.738C275.58 280.892 277.423 278.107 278.087 274.95C278.123 274.817 278.123 274.677 278.088 274.543C278.053 274.41 277.983 274.288 277.887 274.192C271.322 268.753 252.035 253.913 243.802 251.9C244.157 253.088 244.327 253.9 244.282 253.7C244.547 253.837 254.788 257.223 276.457 275.023C275.838 277.56 274.343 279.797 272.235 281.335C265.798 278.025 249.035 266.043 243.285 261.82C242.475 261.22 241.698 262.578 242.498 263.163C242.698 263.31 249.272 268.04 251.12 269.347C251.3 270 255 283.412 255.15 284.07C255.275 284.583 255.205 285.125 254.952 285.59C254.7 286.053 254.283 286.408 253.785 286.582C253.3 286.748 254.26 286.673 231.95 286.818C230.817 276.315 230.28 265.678 235.822 256.672C236.845 255.02 236.26 256.692 236.355 253.298C236.207 253.415 236.072 253.55 235.955 253.698C234.058 256.223 232.593 259.047 231.622 262.052C230.505 262.907 229.252 263.567 227.915 264.003C224.24 265.003 221.728 263.323 223.218 257.51C223.258 257.345 223.245 257.172 223.182 257.013C223.117 256.857 223.005 256.723 222.862 256.632C221.887 256.173 222.168 256.432 222.445 256.043C225.768 251.55 223.465 247.522 218.53 252.007C218.395 252.148 218.318 252.338 218.317 252.535C218.317 252.733 218.39 252.923 218.525 253.067C218.66 253.212 218.843 253.298 219.042 253.312C219.238 253.325 219.432 253.262 219.585 253.135C220.228 252.583 220.935 252.108 221.688 251.72C222.227 251.535 222.677 251.355 222.348 252.855C222.105 253.642 221.732 254.38 221.247 255.043C221.047 255.317 220.96 255.443 221.015 255.758C214.6 252.725 213.925 252.043 212.94 252.558C211.957 253.072 211.14 255.53 210.83 256.558C206.787 270.37 220.385 280.71 229.708 277.898ZM214.448 270.268C212.805 267.893 211.86 265.105 211.718 262.22C211.577 259.335 212.245 256.468 213.648 253.943C213.57 253.99 213.708 253.978 213.848 254.032C214.487 254.283 215.09 254.678 215.712 254.972L221.577 257.743C221.002 260.38 220.928 263.67 223.522 265.203C224.722 265.728 226.038 265.93 227.34 265.79C228.642 265.65 229.883 265.172 230.945 264.403C230.007 268.293 229.578 272.29 229.67 276.29C224.385 278.087 217.662 274.8 214.448 270.268ZM198.44 158.863C173.178 150.018 172.772 112.704 197.895 103.31C198.82 102.966 198.398 101.468 197.482 101.81C170.682 111.824 171.43 151.048 198.028 160.363C198.985 160.698 199.347 159.18 198.44 158.863ZM136.824 281.54C124.442 277.697 123.642 277.437 123.388 277.393C123.134 277.352 104.644 277.825 84.7183 278.295C84.553 278.313 84.396 278.377 84.2638 278.478C84.1316 278.578 84.0295 278.713 83.9683 278.868C83.8983 279.068 66.3083 329.12 66.0583 329.848C65.8083 330.575 65.6963 330.193 79.2743 340.372C79.5703 340.592 78.1563 340.735 95.4883 337.693C95.6185 337.658 95.7371 337.59 95.8326 337.495C95.928 337.398 95.9968 337.28 96.0323 337.15C96.4323 335.898 109.084 295.418 109.202 295.028L137.076 295.928C137.282 295.925 137.479 295.843 137.624 295.698C137.769 295.552 137.852 295.355 137.854 295.15C137.364 281.518 137.612 281.783 136.824 281.54ZM123.19 278.94L132.288 281.763C89.8263 284.187 99.8883 283.673 96.5243 283.673L88.0783 279.775L123.19 278.94ZM79.2223 338.4L67.7263 329.78C67.8003 329.57 83.7843 284.06 85.1823 280.142C100.488 287.205 94.6023 284.588 95.9823 285.142C79.1363 338.722 80.2683 335.333 79.2223 338.4ZM94.6423 336.272L80.8003 338.713C99.2003 280.113 97.0003 287.092 97.5403 285.525L107.716 294.48C93.5103 340.13 95.2423 334.263 94.6423 336.27V336.272ZM108.904 293.472L99.5143 285.2C99.7143 285.188 135.152 283.167 135.868 283.113C135.992 286.588 136.268 294.077 136.268 294.347L108.904 293.472ZM266.92 331.558C267.045 330.513 249.92 303.683 236.698 291.745C235.958 291.078 234.852 292.173 235.6 292.847C241.92 298.547 254.3 313.067 265.485 331.88C265.572 332.015 265.698 332.12 265.847 332.18C265.995 332.242 266.158 332.255 266.315 332.22C266.472 332.185 266.613 332.102 266.722 331.983C266.83 331.865 266.9 331.717 266.92 331.558ZM276.082 332.542C272.837 333.352 269.502 333.755 266.157 333.742C266.157 333.742 258.398 332.925 257.582 333.942C256.767 334.958 258.398 339.86 276.567 337.82C281.882 337.218 279.69 331.612 276.082 332.542ZM236.278 325.8C233.032 326.612 229.698 327.013 226.352 327C226.352 327 218.595 326.187 217.778 327.2C216.962 328.213 218.595 333.12 236.762 331.075C242.078 330.48 239.882 324.875 236.278 325.8ZM239.538 233.653C242.922 235.72 240.855 241.358 240.855 241.358C244.988 239.103 245.365 240.793 244.425 243.048C244.21 243.667 243.837 244.217 243.342 244.647C242.848 245.075 242.248 245.365 241.607 245.49C241.607 245.49 241.787 245.97 242.055 246.712C252.378 247.678 253.317 242.128 253.498 240.653C253.698 239.02 249.008 238.918 249.008 238.918C255.408 235.442 254.388 231.443 248.808 233.305C248.808 233.305 253.708 230.855 252.382 229.12C251.057 227.383 243.502 227.897 239.52 229.32C238.597 229.615 237.752 230.118 237.052 230.792C236.353 231.463 235.817 232.288 235.487 233.2C236.155 232.98 236.863 232.905 237.562 232.983C238.262 233.062 238.935 233.29 239.538 233.653ZM234.948 237.45C235.848 237.9 235.375 238.498 235.99 238.85C236.168 238.953 236.38 238.982 236.58 238.93C236.778 238.877 236.95 238.748 237.055 238.572C237.445 237.825 236.502 236.155 235.36 235.943C235.16 235.89 234.947 235.917 234.767 236.018C234.588 236.122 234.457 236.292 234.402 236.49C234.347 236.69 234.373 236.903 234.477 237.083C234.578 237.263 234.748 237.395 234.948 237.45ZM232.742 241.758C233.908 241.758 233.908 239.608 232.742 239.608C231.577 239.608 231.578 241.758 232.742 241.758ZM228.288 246.788C231.035 247.768 235.775 245.323 234.488 244.033C233.608 243.15 232.122 245.95 229.288 245.433C228.77 245.338 227.98 245.012 227.752 245.833C227.703 246.032 227.732 246.24 227.832 246.417C227.932 246.593 228.095 246.727 228.288 246.788ZM299.472 284.385L298.637 299.13L280.477 298.792C280.277 298.802 280.09 298.888 279.952 299.033C279.815 299.177 279.738 299.37 279.738 299.568C279.738 299.768 279.815 299.96 279.952 300.105C280.09 300.25 280.277 300.335 280.477 300.347L299.368 300.7C299.573 300.695 299.768 300.61 299.912 300.465C300.057 300.322 300.14 300.127 300.147 299.922L301.028 284.385C301.085 283.398 299.53 283.388 299.472 284.385Z" fill="#1D1D1B"/>
</svg>
