<svg width="236" height="98" viewBox="0 0 236 98" fill="none" xmlns="http://www.w3.org/2000/svg">
<path d="M110.047 62.2157C106.041 62.0926 103.054 59.7104 100.657 54.7219V49.8048C104.189 42.7716 109.731 40.4954 113.656 41.3674C117.385 42.1927 119.609 45.6613 119.609 50.6424C119.609 54.5322 118.471 57.6879 116.324 59.7671C114.616 61.4176 112.374 62.2896 110.047 62.2157ZM151.287 62.2157C147.28 62.0926 144.298 59.7104 141.897 54.7219V49.8048C145.434 42.7716 150.971 40.4954 154.895 41.3674C158.623 42.1927 160.847 45.6613 160.847 50.6424C160.847 54.5322 159.709 57.6879 157.561 59.7671C155.861 61.4176 153.624 62.2896 151.287 62.2157ZM190.186 19.3515C189.643 26.158 186.711 33.9007 181.915 41.2246C180.967 37.8447 180.216 34.0534 179.686 29.9444C177.807 15.3976 180.404 8.38906 183.198 6.80998C183.603 6.58088 184.045 6.46509 184.506 6.46509C185.58 6.46509 186.585 7.07603 187.241 7.5909C188.93 8.9187 190.712 12.7987 190.186 19.3515ZM215.332 48.477C214.745 51.544 213.056 54.5839 210.561 57.0745C208.613 54.8253 207.287 52.1476 206.996 49.8565C206.643 47.0901 207.32 44.5059 208.855 42.7692C209.706 41.801 210.723 41.2467 211.647 41.2467C212.444 41.2467 213.34 41.7616 214.053 42.6238C215.3 44.1216 215.761 46.255 215.332 48.477ZM231.041 50.3911L230.863 50.7631C227.541 57.9071 223.673 61.893 219.982 61.9891C218.573 62.0261 217.144 61.7107 215.705 61.053C218.832 57.7347 220.898 53.8178 221.696 49.694C222.485 45.5726 221.518 41.4955 219.047 38.5098C217.087 36.1424 214.389 34.7851 211.647 34.7851C208.867 34.7851 206.08 36.14 203.995 38.5C201.232 41.6286 199.988 46.0653 200.576 50.6719C201.013 54.0814 202.667 57.6657 205.258 60.8066C203.614 61.5531 201.998 61.9497 200.556 61.9497C198.774 61.9497 194.136 61.3954 189.525 56.2763C187.659 54.207 186.01 51.6376 184.62 48.6421C185.272 47.7626 185.916 46.856 186.54 45.9446C194.042 34.9748 196.177 25.7097 196.646 19.8663C197.271 12.0325 195.306 5.70881 191.248 2.51863C187.691 -0.282332 183.489 -0.779952 180.007 1.19082C176.336 3.26752 170.572 9.87453 173.265 30.7696C174.08 37.113 175.408 42.7815 177.202 47.6222C172.949 52.7782 169.187 56.7074 165.245 59.2916C166.445 57.0696 167.324 54.2292 167.324 50.6424C167.324 46.6146 166.257 43.0278 164.241 40.2687C162.281 37.5786 159.534 35.7778 156.297 35.061C151.193 33.9302 145.75 35.9183 141.897 40.2663V35.1595L135.425 36.3321V47.3635C132.082 53.4433 127.874 57.0819 124.025 59.2571C125.213 57.0425 126.079 54.2119 126.079 50.6424C126.079 46.6146 125.018 43.0254 123.001 40.2687C121.036 37.5786 118.289 35.7778 115.06 35.061C109.953 33.9302 104.513 35.9183 100.657 40.2663V35.1595L94.1798 36.3321V47.6222C89.6824 57.0893 83.2349 62.7774 80.8726 62.7774C79.5718 62.7774 78.5153 62.5532 77.7945 59.7498C77.0169 56.7468 76.9676 52.1032 76.9034 46.2155C76.8861 44.4197 76.8664 42.5598 76.8219 40.5816L76.8096 40.4338C76.8911 38.8547 76.9281 37.2067 76.9281 35.5364V35.1595L70.446 36.3297V36.5933C70.446 51.9948 68.9724 56.3552 66.0597 59.3901C63.8233 61.723 60.9476 61.9374 58.9901 61.9029C52.9154 61.7797 52.3032 57.8332 52.5056 42.3282L52.513 42.1927C52.5377 40.185 52.5698 37.6895 52.5698 35.5364V35.1595L46.0853 36.3297V36.5933C46.0853 38.3867 46.0729 39.7268 46.0482 41.2664L46.0359 42.2444C46.0087 44.028 45.9915 45.7179 45.9915 47.3216C42.9454 53.1896 39.7168 57.3849 36.3474 59.8754C36.4683 59.331 36.5621 58.7694 36.6066 58.1929C37.1373 51.7066 33.0817 47.6074 28.3547 42.8357C26.7922 41.2615 25.0297 39.478 23.2599 37.4407L20.2336 34.4032L18.2885 38.4827C14.3958 46.9127 5.13677 58.2643 0.278931 63.6445L0 63.9549L5.83286 66.7658L5.99084 66.5909C8.23463 64.1028 15.9311 55.2811 21.5863 45.171C22.312 45.9249 23.0155 46.6343 23.6844 47.3069L23.7733 47.4029C28.2781 51.9529 30.4331 54.2883 30.1541 57.6657C30.0603 58.8679 29.5049 60.3706 28.2535 60.9865C26.4194 61.8856 22.5835 60.6416 17.9972 57.6682L17.701 57.4736L14.8129 63.3908L15.045 63.5411C17.4862 65.1226 19.7276 66.246 21.8208 66.9481C24.1781 67.8571 26.5157 68.3276 28.7891 68.3276C30.5022 68.3276 32.2079 68.0665 33.8592 67.5541C38.4406 66.1253 42.7109 62.6813 46.616 57.2913C46.769 58.1707 46.964 59.0058 47.2035 59.7966C48.8844 65.3591 52.8018 68.2414 58.8568 68.3621L59.1975 68.3645C63.1148 68.3645 66.4892 67.0047 69.2266 64.3245C70.2757 63.2997 71.2359 62.0384 72.0826 60.5701C72.132 60.7795 72.1838 60.984 72.2332 61.1835C73.4921 66.044 76.3974 68.5074 80.8726 68.5074C85.175 68.5074 90.06 64.3984 94.1798 58.7792V98L100.657 96.7757V64.0239C101.726 65.0586 102.856 65.8838 104.044 66.512L104.039 66.5194L104.436 66.7165C104.525 66.7608 104.626 66.8002 104.72 66.8421C104.873 66.9111 105.019 66.9801 105.169 67.0417C105.48 67.1673 105.796 67.2855 106.129 67.3964C106.169 67.4087 106.206 67.4186 106.243 67.4309C108.008 67.9999 110.067 68.3325 111.975 68.3325C115.028 68.3325 118.289 67.7708 121.404 66.7042C125.524 65.2975 130.737 62.5729 135.425 57.311V98L141.897 96.7757V64.0239C143.205 65.2901 144.607 66.246 146.086 66.9037L146.081 66.9111L146.187 66.9505C146.685 67.1673 147.199 67.3422 147.717 67.49C153.859 69.3844 160.992 68.2389 167.956 64.2038C172.147 61.7797 176.24 58.3777 180.14 54.0912C181.485 56.5375 183.02 58.7225 184.709 60.5923C189.182 65.5611 194.958 68.4089 200.556 68.4089C203.723 68.4089 207.102 67.3718 210.338 65.4109C213.347 67.4013 216.608 68.4508 219.773 68.4508C219.899 68.4508 220.027 68.4508 220.145 68.4458C224.848 68.3251 230.389 66.6056 235.899 54.7736L236 54.5544" fill="#8657BD"/>
</svg>
