<svg id="Camada_1" data-name="Camada 1" xmlns="http://www.w3.org/2000/svg" xmlns:xlink="http://www.w3.org/1999/xlink" viewBox="0 0 379.48 157.69"><defs><style>.cls-1{fill:url(#Gradiente_sem_nome_5);}</style><linearGradient id="Gradiente_sem_nome_5" x1="3.01" y1="77.7" x2="376.48" y2="77.7" gradientUnits="userSpaceOnUse"><stop offset="0" stop-color="#a163f7"/><stop offset="1" stop-color="#6f66fc"/></linearGradient></defs><path class="cls-1" d="M368.63,79.9l-.28.59c-5.26,11.33-11.38,17.65-17.22,17.8a15.23,15.23,0,0,1-6.77-1.48,36.37,36.37,0,0,0,9.47-18,21.35,21.35,0,0,0-4.18-17.74,15.39,15.39,0,0,0-11.71-5.9,16.43,16.43,0,0,0-12.11,5.89c-4.37,5-6.34,12-5.41,19.3a32.41,32.41,0,0,0,7.41,16.07,18.23,18.23,0,0,1-7.45,1.81c-2.81,0-10.15-.88-17.45-9a49.07,49.07,0,0,1-7.77-12.11c1-1.39,2.06-2.83,3-4.28,11.87-17.39,15.24-32.08,16-41.35,1-12.42-2.11-22.45-8.53-27.51C300-.45,293.38-1.24,287.87,1.89c-5.82,3.29-14.93,13.77-10.67,46.9a122.3,122.3,0,0,0,6.23,26.72C276.7,83.69,270.75,89.92,264.51,94a28.42,28.42,0,0,0,3.28-13.72,27.66,27.66,0,0,0-4.87-16.45,21,21,0,0,0-12.57-8.26c-8.08-1.79-16.69,1.37-22.79,8.26v-8.1l-10.24,1.86V75.1c-5.29,9.65-11.95,15.41-18,18.86a28.47,28.47,0,0,0,3.25-13.66,27.66,27.66,0,0,0-4.87-16.45,21,21,0,0,0-12.57-8.26C177,53.8,168.4,57,162.3,63.85v-8.1l-10.25,1.86v17.9c-7.12,15-17.32,24-21.06,24-2.06,0-3.73-.35-4.87-4.8-1.23-4.76-1.31-12.12-1.41-21.46,0-2.85-.06-5.79-.13-8.93l0-.24c.13-2.5.19-5.11.19-7.76v-.6l-10.26,1.86V58c0,24.42-2.33,31.33-6.94,36.14-3.54,3.7-8.09,4-11.19,4-9.61-.19-10.58-6.45-10.26-31V66.9c0-3.18.09-7.14.09-10.55v-.6L75.94,57.61V58c0,2.84,0,5-.06,7.41l0,1.54c0,2.83-.07,5.51-.07,8.06C71,84.34,65.86,91,60.53,94.94a19.15,19.15,0,0,0,.41-2.66C61.78,82,55.36,75.49,47.88,67.92c-2.47-2.49-5.26-5.32-8.06-8.55L35,54.55,32,61c-6.16,13.37-20.81,31.37-28.5,39.9l-.44.49,9.23,4.46.25-.28c3.55-3.94,15.73-17.93,24.68-34C38.32,72.82,39.43,74,40.48,75l.15.14c7.13,7.22,10.54,10.92,10.1,16.28-.16,1.91-1,4.29-3,5.26-2.9,1.43-9-.54-16.23-5.26L31,91.13l-4.57,9.39.37.24a48.71,48.71,0,0,0,10.72,5.4,30.63,30.63,0,0,0,11,2.19,26.94,26.94,0,0,0,8-1.23c7.26-2.27,14-7.73,20.19-16.27a37.27,37.27,0,0,0,.93,4c2.66,8.82,8.87,13.39,18.45,13.58h.54a21.9,21.9,0,0,0,15.87-6.4,27.6,27.6,0,0,0,4.52-6c.08.34.16.66.24,1,2,7.71,6.59,11.61,13.67,11.61,6.81,0,14.54-6.52,21.06-15.42V155.4l10.25-2V101.52a23.64,23.64,0,0,0,5.36,4h0l.63.31.45.2.71.32c.49.2,1,.38,1.51.56l.19,0a30.57,30.57,0,0,0,9.07,1.44,46.67,46.67,0,0,0,14.92-2.59,52.24,52.24,0,0,0,22.19-14.89V155.4l10.24-2V101.52a23.06,23.06,0,0,0,6.63,4.57h0l.17.06a19.36,19.36,0,0,0,2.42.86c9.72,3,21,1.19,32-5.21a82.15,82.15,0,0,0,19.28-16,54.62,54.62,0,0,0,7.23,10.31c7.08,7.88,16.22,12.39,25.07,12.39a30.21,30.21,0,0,0,15.49-4.75,27.13,27.13,0,0,0,14.93,4.82h.59c7.44-.19,16.21-2.91,24.93-21.68l.16-.34Zm-24.86-3a26.88,26.88,0,0,1-7.55,13.63c-3.08-3.57-5.18-7.81-5.64-11.44-.56-4.39.51-8.49,2.94-11.24a6.24,6.24,0,0,1,4.42-2.42,5.33,5.33,0,0,1,3.81,2.19A11.16,11.16,0,0,1,343.77,76.87ZM304,30.69c-.86,10.79-5.5,23.07-13.09,34.68a125.63,125.63,0,0,1-3.53-17.89c-3-23.07,1.14-34.18,5.56-36.68a4.19,4.19,0,0,1,2.07-.55A7.36,7.36,0,0,1,299.31,12C302,14.14,304.81,20.29,304,30.69Zm-61.56,68c-6.34-.19-11.06-4-14.86-11.88V79c5.6-11.16,14.36-14.77,20.57-13.38,5.9,1.3,9.42,6.8,9.42,14.7,0,6.17-1.8,11.18-5.2,14.47A13.52,13.52,0,0,1,242.42,98.65Zm-65.26,0c-6.34-.19-11.07-4-14.86-11.88V79c5.59-11.16,14.36-14.77,20.57-13.38,5.9,1.3,9.42,6.8,9.42,14.7,0,6.17-1.8,11.18-5.2,14.47A13.57,13.57,0,0,1,177.16,98.65Z"/></svg>