<svg width="63" height="72" viewBox="0 0 63 72" fill="none" xmlns="http://www.w3.org/2000/svg">
<path d="M43.7848 2.03442L26.7742 19.0887L36.0762 28.3673L53.0872 11.3131L43.7848 2.03442Z" fill="#CDFFEC"/>
<path d="M43.6341 11.4281C45.687 13.481 45.687 16.8342 43.6341 18.8871C41.5809 20.9401 38.228 20.9401 36.1752 18.8871C34.122 16.8342 34.122 13.481 36.1752 11.4281C38.228 9.37513 41.5809 9.37513 43.6341 11.4281Z" fill="white"/>
<path d="M40.7601 14.1653C40.4865 14.1653 40.1441 14.3021 39.8021 14.5074L39.5285 14.6443C39.4597 14.6443 39.4597 14.7127 39.3913 14.7127C39.1861 14.7811 39.0493 14.8496 38.9125 14.8496C38.7757 14.8496 38.6389 14.7811 38.5017 14.6443C38.3649 14.5074 38.2965 14.3706 38.2965 14.2337C38.2965 14.0968 38.3649 13.96 38.5017 13.8231C38.6389 13.6862 38.7757 13.6178 38.9125 13.6178C39.0493 13.6178 39.2545 13.6862 39.3913 13.8231L40.2125 13.0019C39.9389 12.7966 39.7337 12.6598 39.3913 12.5913C39.1177 12.5229 38.7757 12.5229 38.5017 12.5913C38.3649 12.6598 38.2281 12.6598 38.0913 12.7966L37.3385 12.0439L36.9964 12.3861L36.6541 12.7282L37.4069 13.481C37.3385 13.6178 37.2701 13.7547 37.2701 13.8915C37.2016 14.1653 37.2016 14.5074 37.2701 14.7811C37.3385 15.0549 37.4753 15.3286 37.6808 15.5339C37.8861 15.7392 38.0913 15.876 38.4333 15.9445C38.7073 16.0129 38.9809 16.0129 39.2545 15.9445C39.3913 15.9445 39.5969 15.876 39.8021 15.7392C39.8021 15.7392 39.8705 15.6708 40.0073 15.6023C40.0757 15.5339 40.1441 15.5339 40.2125 15.5339C40.4865 15.397 40.6917 15.3286 40.8285 15.3286C41.1021 15.3286 41.3077 15.397 41.4445 15.6023C41.5813 15.7392 41.6497 15.9445 41.6497 16.1498C41.6497 16.3551 41.5813 16.5604 41.3761 16.6972C41.239 16.8341 41.0337 16.9025 40.8285 16.971C40.6233 16.971 40.4181 16.9025 40.2809 16.7657L39.4597 17.5868C39.6653 17.7921 39.8705 17.929 40.0073 17.929C40.2125 17.9975 40.4181 18.0659 40.6917 18.0659C41.1021 18.0659 41.4445 17.9975 41.7866 17.7237L42.471 18.408L42.813 18.0659L43.1554 17.7237L42.4026 16.971C42.471 16.8341 42.5394 16.6972 42.6078 16.4919C42.6762 16.1498 42.6762 15.8076 42.6078 15.4655C42.5394 15.1233 42.3341 14.8496 42.1286 14.5759C41.7866 14.2337 41.3077 14.0968 40.7601 14.1653Z" fill="#42AF71"/>
<path d="M25.6365 19.0924L36.1067 29.5625L54.3095 11.2912L43.7709 0.821167L25.6365 19.0924ZM38.0227 25.2513C36.9279 24.1564 35.2171 24.1564 34.1903 25.2513L29.9478 21.0085C30.9742 19.9136 30.9742 18.2712 29.9478 17.1763L41.8548 5.20079C42.9497 6.22725 44.5921 6.22725 45.6869 5.13235L49.9298 9.37512C48.9034 10.47 48.9034 12.1808 49.9298 13.2073L38.0227 25.2513Z" fill="#4CD7AD"/>
<path d="M35.1154 1.11975L24.0493 22.5147L35.7191 28.5506L46.7852 7.15572L35.1154 1.11975Z" fill="#CDFFEC"/>
<path d="M37.8174 10.1279C40.4175 11.4966 41.4442 14.6444 40.0754 17.2448C38.707 19.8452 35.5589 20.8717 32.9585 19.5031C30.358 18.1344 29.3316 14.9866 30.7004 12.3861C32.0005 9.78576 35.2169 8.75927 37.8174 10.1279Z" fill="white"/>
<path d="M35.8327 13.6178C35.559 13.7547 35.2854 13.96 35.0118 14.2337L34.8062 14.3706C34.7378 14.439 34.7378 14.439 34.6694 14.439C34.5326 14.5759 34.3274 14.7127 34.259 14.7127C34.1222 14.7812 33.985 14.7127 33.7798 14.6443C33.643 14.5759 33.5062 14.439 33.4378 14.3021C33.3694 14.1653 33.3694 14.0284 33.5062 13.8231C33.5746 13.6863 33.7114 13.5494 33.8482 13.481C33.985 13.4126 34.1906 13.4126 34.3274 13.481L34.8746 12.4545C34.601 12.3176 34.259 12.2492 33.985 12.2492C33.7114 12.2492 33.3694 12.3861 33.1642 12.5229C33.027 12.5913 32.9586 12.7282 32.8218 12.7967L31.9322 12.3176L31.7269 12.9335L31.5217 13.3441L32.4113 13.8231C32.4113 13.96 32.3429 14.0968 32.3429 14.2337C32.3429 14.5759 32.4113 14.8496 32.6166 15.1233C32.7534 15.397 33.027 15.6024 33.301 15.7392C33.5746 15.8761 33.8482 15.9445 34.1222 15.9445C34.3958 15.9445 34.6694 15.8761 34.9434 15.7392C35.0802 15.6708 35.217 15.5339 35.3538 15.397C35.3538 15.397 35.4222 15.3286 35.559 15.1918C35.6274 15.1233 35.6958 15.0549 35.6958 15.0549C35.9014 14.8496 36.0382 14.7812 36.2434 14.7127C36.4487 14.6443 36.7223 14.6443 36.9278 14.7812C37.1331 14.918 37.2699 15.0549 37.3383 15.2602C37.4067 15.4655 37.4067 15.6708 37.2699 15.8761C37.2699 15.8761 37.2699 15.8761 37.2699 15.9445C37.1331 16.1498 36.9963 16.2867 36.8594 16.3551C36.6539 16.4235 36.4487 16.4235 36.2434 16.2867L35.6958 17.3132C35.9698 17.45 36.175 17.5184 36.3802 17.5184C36.5855 17.5184 36.8594 17.5184 37.0647 17.45C37.4751 17.3132 37.7491 17.1078 38.0227 16.8341L38.9123 17.3132L39.1175 16.9026L39.3227 16.4235L38.4331 15.9445C38.5015 15.8076 38.5015 15.6024 38.5015 15.397C38.5015 15.0549 38.3647 14.7127 38.2279 14.439C38.0227 14.1653 37.8175 13.8916 37.4751 13.7547C36.8594 13.4126 36.3803 13.3441 35.8327 13.6178Z" fill="#42AF71"/>
<path d="M22.8992 22.8562L36.0379 29.6309L47.8765 6.77474L34.7378 0L22.8992 22.8562ZM36.5855 24.9776C35.2167 24.2933 33.5746 24.8407 32.8902 26.1409L27.5525 23.4036C28.2369 22.1034 27.6893 20.4611 26.3892 19.7768L34.1902 4.72178C35.4906 5.40611 37.1331 4.85866 37.8171 3.55844L43.1548 6.36414C42.4704 7.66436 43.018 9.30672 44.3181 9.99102L36.5855 24.9776Z" fill="#4CD7AD"/>
<path d="M19.3738 21.9925C21.1075 23.976 23.6244 26.9512 23.6244 26.9512C23.2887 28.8246 19.933 32.5161 18.3671 33.8384L7.40466 21.0008C10.9842 18.0255 16.3534 18.4663 19.3738 21.9925Z" fill="#7A6EF5"/>
<path d="M18.1089 55.4297H13.5923V69.1845H18.1089V55.4297Z" fill="#7A6EF5"/>
<path d="M49.2453 55.4297H44.7288V69.1845H49.2453V55.4297Z" fill="#7A6EF5"/>
<path d="M18.7504 43.3174H0V49.476H18.7504V43.3174Z" fill="#7A6EF5"/>
<path d="M58.894 40.7855C58.2099 35.3109 55.3358 30.5206 51.1614 27.3043C47.8081 24.7039 43.5656 23.1984 38.9803 23.1984H24.61C15.6453 23.1984 5.46535 29.7678 4.74375 41.3898H0V46.8432L59.0995 42.6119L58.894 40.7855Z" fill="#7A6EF5"/>
<path d="M4.55945 42.6123L59.0996 42.6119C59.0996 47.8812 57.1151 53.4453 53.7618 57.0038V69.2529H49.2454V60.6307C46.2345 62.4099 42.7444 63.4363 39.0491 63.4363H24.61C23.9831 63.4363 23.4136 63.3789 22.7962 63.3165C22.7398 63.3108 22.6827 63.3052 22.6255 63.2995V69.2529H18.1091V62.3415C16.535 61.7939 15.0295 61.0411 13.6608 60.1515C8.18633 56.5246 4.55945 49.6605 4.55945 42.6123Z" fill="#7A6EF5"/>
<path d="M42.1967 24.567H23.6518C23.3095 24.567 23.1042 24.2932 23.1042 24.0195V23.8142C23.1042 23.4721 23.3779 23.2668 23.6518 23.2668H42.1967C42.5387 23.2668 42.7443 23.5405 42.7443 23.8142V24.0195C42.7443 24.3617 42.5387 24.567 42.1967 24.567Z" fill="#514ED1"/>
<path d="M20.9147 15.671C24.0892 15.671 26.6628 13.0974 26.6628 9.92269C26.6628 6.74802 24.0892 4.17444 20.9147 4.17444C17.7398 4.17444 15.1663 6.74802 15.1663 9.92269C15.1663 13.0974 17.7398 15.671 20.9147 15.671Z" fill="#FCC821"/>
<path d="M20.9145 14.2339C18.5877 14.2339 16.6716 12.3178 16.6716 9.99112C16.6716 7.66443 18.5877 5.74835 20.9145 5.74835C23.241 5.74835 25.157 7.66443 25.157 9.99112C25.0886 12.3178 23.241 14.2339 20.9145 14.2339ZM20.9145 6.77485C19.1353 6.77485 17.6981 8.21189 17.6981 9.99112C17.6981 11.7704 19.1353 13.2074 20.9145 13.2074C22.6937 13.2074 24.1306 11.7704 24.1306 9.99112C24.1306 8.21189 22.6937 6.77485 20.9145 6.77485Z" fill="#F3941F"/>
<path d="M57.2519 71.9901C60.4264 71.9901 63.0001 69.4165 63.0001 66.242C63.0001 63.0671 60.4264 60.4935 57.2519 60.4935C54.0771 60.4935 51.5034 63.0671 51.5034 66.242C51.5034 69.4165 54.0771 71.9901 57.2519 71.9901Z" fill="#FCC821"/>
<path d="M57.2516 70.5529C54.9251 70.5529 53.009 68.6369 53.009 66.3104C53.009 63.9835 54.9251 62.0675 57.2516 62.0675C59.5784 62.0675 61.4944 63.9835 61.4944 66.3104C61.4944 68.6369 59.5784 70.5529 57.2516 70.5529ZM57.2516 63.0939C55.4723 63.0939 54.0355 64.5311 54.0355 66.3104C54.0355 68.0896 55.4723 69.5265 57.2516 69.5265C59.0308 69.5265 60.468 68.0896 60.468 66.3104C60.468 64.5311 59.0308 63.0939 57.2516 63.0939Z" fill="#F3941F"/>
<path d="M54.3778 19.6398C54.5147 20.2557 53.9671 20.3241 53.6934 20.3926C53.0774 20.5295 52.7354 21.0085 52.393 21.4191C52.1878 21.6244 52.1878 21.8981 52.1878 22.1034C52.1194 22.514 51.9142 22.6508 51.435 22.5824C51.093 22.1034 51.1614 21.3506 50.6142 20.8716C50.135 20.3926 49.3822 20.461 48.9033 19.982C48.9033 19.503 49.2453 19.4346 49.519 19.3661C50.477 19.0924 51.0246 18.4765 51.2982 17.5185C51.3666 17.3132 51.5038 17.1763 51.7774 17.0394C52.2562 17.45 52.1194 18.2712 52.5986 18.6818C53.1458 19.1608 53.7618 19.3661 54.3778 19.6398Z" fill="#FBB811"/>
<path d="M55.5412 25.5934C54.5831 25.5934 53.8303 24.8406 53.8303 23.8826C53.8303 22.9246 54.5831 22.1718 55.5412 22.1718C56.4992 22.1718 57.252 22.9246 57.252 23.8826C57.252 24.8406 56.4992 25.5934 55.5412 25.5934ZM55.5412 23.2667C55.1991 23.2667 54.8568 23.5404 54.8568 23.951C54.8568 24.3616 55.1304 24.6353 55.5412 24.6353C55.9516 24.6353 56.2256 24.3616 56.2256 23.951C56.2256 23.5404 55.9516 23.2667 55.5412 23.2667Z" fill="#FBB811"/>
<path fill-rule="evenodd" clip-rule="evenodd" d="M17.3392 38.7752C16.3854 38.7858 15.6404 39.1091 15.3171 39.5072C15.0101 39.8849 14.4549 39.9423 14.0771 39.6352C13.6993 39.3285 13.6418 38.7731 13.9489 38.3951C14.7318 37.4318 16.0886 37.0259 17.3195 37.0122C18.5684 36.9984 19.965 37.3814 20.9023 38.3323C21.2443 38.679 21.2401 39.2371 20.8934 39.5788C20.5468 39.9208 19.9887 39.9166 19.647 39.57C19.1463 39.0622 18.275 38.7646 17.3392 38.7752Z" fill="#514ED1"/>
</svg>
